<svg width="3984" height="2304" xmlns="http://www.w3.org/2000/svg"><path fill="#030100" stroke="#030100" opacity=".702" d="m1597.5 417 6.5.5-6.5.5v-1ZM515.5 418l3 4-3-4ZM872.5 418l1 2-1-2ZM1106.5 418l4 5-4-5ZM1608.5 418l3.5.5-3.5.5v-1ZM1844.5 418l-1 2 1-2ZM1916.5 418l1 2-1-2ZM793.5 419l-1 2 1-2ZM1042.5 419l-2 3 2-3ZM1376.5 419l-1 2 1-2ZM1615.5 419l2.5.5-2.5.5v-1ZM2530.5 419l2 3-2-3ZM875.5 421l1 2-1-2ZM1841.5 421l-1 2 1-2ZM1919.5 421l1 2-1-2ZM2451.5 421l-1 2 1-2ZM791.5 422l-1 2 1-2ZM1374.5 422l-.5 1.5-.5 1.5-.5-1.5 1.5-1.5ZM877.5 424l.5 6.5h-1l.5-6.5ZM1921.5 424l.5 485.5h-1l.5-485.5ZM1839.5 425l.5 484.5h-1l.5-484.5ZM2534.5 426l.5 481.5h-1l.5-481.5ZM522.5 428l1 2-1-2ZM876.5 433l-1 2 1-2ZM1658.5 434l1 2-1-2ZM434.5 435l1 2-1-2ZM2443.5 435l-1 2 1-2ZM873.5 438l-1 2 1-2ZM781.5 439l-1 2 1-2ZM437.5 440l1 2-1-2ZM1668.5 440l1 2-1-2ZM1671.5 442l1 2-1-2ZM2133.5 442l1 2-1-2ZM870.5 443l-1 2 1-2ZM440.5 445l1 2-1-2ZM1675.5 445l1 2-1-2ZM533.5 447l1 2-1-2ZM867.5 448l-1 2 1-2ZM1679.5 448l1 2-1-2ZM443.5 450l1 2-1-2ZM774.5 451l-1 2 1-2ZM1683.5 451l4 5-4-5ZM2138.5 451l1 2-1-2ZM864.5 453l-1 2 1-2ZM446.5 455l1 2-1-2ZM771.5 456l-1 2 1-2ZM861.5 458l-1 2 1-2ZM540.5 459l1 2-1-2ZM449.5 460l1 2-1-2ZM1693.5 460l1 2-1-2ZM2143.5 460l1 2-1-2ZM2429.5 460l-1 2 1-2ZM452.5 465l1 2-1-2ZM1699.5 467l4 5-4-5ZM764.5 468l-1 2 1-2ZM2424.5 469l-1 2 1-2ZM455.5 470l1 2-1-2ZM547.5 471l1 2-1-2ZM1705.5 474l2 3-2-3ZM458.5 475l1 2-1-2ZM551.5 478l1 2-1-2ZM1709.5 479l1 2-1-2ZM757.5 480l-1 2 1-2ZM1712.5 483l1 2-1-2ZM754.5 485l-1 2 1-2ZM2415.5 485l-1 2 1-2ZM1714.5 486l1 2-1-2ZM1716.5 489l1 2-1-2ZM558.5 490l1 2-1-2ZM1456.5 492l129.5.5-130 .5-.5 177-.5-176.5 1.5-1.5ZM1593.5 493l2.5.5-2.5.5v-1ZM2410.5 494l-1 2 1-2ZM747.5 497l-1 2 1-2ZM565.5 502l1 2-1-2ZM2167.5 503l1 2-1-2ZM1625.5 506l1 2-1-2ZM740.5 509l-1 2 1-2ZM1629.5 509l8 9-8-9ZM2401.5 510l-1 2 1-2ZM2172.5 512l1 2-1-2ZM737.5 514l-1 2 1-2ZM2396.5 519l-1 2 1-2ZM1639.5 520l2 3-2-3ZM576.5 521l1 2-1-2ZM2177.5 521l1 2-1-2ZM730.5 526l-1 2 1-2ZM1074.5 528l1 2q-2.8.7-1-2ZM583.5 533l1 2-1-2ZM815.5 535l-1 2 1-2ZM812.5 540l-1 2 1-2ZM720.5 543l-1 2 1-2ZM1740.5 544l.5 2.5h-1l.5-2.5ZM2382.5 544l-1 2 1-2ZM809.5 545l-1 2 1-2ZM1741.5 549l.5 2.5h-1l.5-2.5ZM806.5 550l-1 2 1-2ZM594.5 552l1 2-1-2ZM1742.5 554l.5 3.5h-1l.5-3.5ZM713.5 555l-1 2 1-2ZM803.5 555l-1 2 1-2ZM2196.5 555l1 2-1-2ZM800.5 560l-1 2 1-2ZM1743.5 561l.5 4.5h-1l.5-4.5ZM601.5 564l1 2-1-2ZM2201.5 564l1 2-1-2ZM797.5 565l-1 2 1-2ZM1660.5 566l.5 3.5h-1l.5-3.5ZM2368.5 569l-1 2 1-2ZM794.5 570l-1 2 1-2ZM703.5 572l-1 2 1-2ZM1744.5 572l.5 17.5h-1l.5-17.5ZM2206.5 573l1 2-1-2ZM791.5 575l-1 2 1-2ZM608.5 576l1 2-1-2ZM1661.5 576l.5 9.5h-1l.5-9.5ZM2363.5 578l-1 2 1-2ZM2120 579l2 .5-1 1-.5 328.5-.5-330ZM2451.5 579l-1 2 1-2ZM788.5 580l-1 2 1-2ZM2211.5 582l1 2-1-2ZM612.5 583l1 2-1-2ZM696.5 584l-1 2 1-2ZM785.5 585l-1 2 1-2ZM693.5 589l-1 2 1-2ZM782.5 590l-1 2 1-2ZM528.5 592l1 2-1-2ZM1660.5 592l.5 3.5h-1l.5-3.5ZM2129.5 594l1 2-1-2ZM2354.5 594l-1 2 1-2ZM619.5 595l1 2-1-2ZM779.5 595l-1 2 1-2ZM2442.5 595l-1 2 1-2ZM531.5 597l1 2-1-2ZM1743.5 597l.5 4.5h-1l.5-4.5ZM776.5 600l-1 2 1-2ZM686.5 601l-1 2 1-2ZM534.5 602l1 2-1-2ZM2349.5 603l-1 2 1-2ZM773.5 605l-1 2 1-2ZM1742.5 606l.5 2.5h-1l.5-2.5ZM537.5 607l1 2-1-2ZM626.5 607l1 2-1-2ZM2138.5 610l1 2-1-2ZM2433.5 611l-1 2 1-2ZM540.5 612l1 2-1-2ZM1741.5 612l.5 2.5h-1l.5-2.5ZM679.5 613l-1 2 1-2ZM2230.5 616l1 2-1-2ZM543.5 617l1 2-1-2ZM676.5 618l-1 2 1-2ZM2428.5 620l-1 2 1-2ZM546.5 622l1 2-1-2ZM2235.5 625l1 2-1-2ZM637.5 626l1 2-1-2ZM2147.5 626l1 2-1-2ZM549.5 627l1 2-1-2ZM2335.5 628l-1 2 1-2ZM669.5 630l-1 2 1-2ZM552.5 632l1 2-1-2ZM2240.5 634l1 2-1-2ZM2419.5 636l-1 2 1-2ZM555.5 637l1 2-1-2ZM1645.5 637l-1 2 1-2ZM644.5 638l1 2-1-2ZM1643.5 640l-1 2 1-2ZM558.5 642l1 2-1-2ZM662.5 642l-1 2 1-2ZM2156.5 642l1 2-1-2ZM2245.5 643l1 2-1-2ZM1640.5 644l-4 5 4-5ZM561.5 647l1 2-1-2ZM659.5 647l-1 2 1-2ZM651.5 650l1 2-1-2ZM564.5 652l1 2-1-2ZM1632.5 652l-4 5 4-5ZM2321.5 653l-1 2 1-2ZM567.5 657l1 2-1-2ZM1626.5 657l-1 2 1-2ZM2405.5 661l-1 2 1-2ZM570.5 662l1 2-1-2ZM2316.5 662l-1 2 1-2ZM2169.5 665l1 2-1-2ZM1722.5 666l-1 2 1-2ZM573.5 667l1 2-1-2ZM1601.5 668l2.5.5-2.5.5v-1ZM1591.5 669l6.5.5-6.5.5v-1ZM1719.5 671l-1 2 1-2ZM576.5 672l1 2-1-2ZM1717.5 674l-1 2 1-2ZM579.5 677l1 2-1-2ZM1715.5 677l-1 2 1-2ZM2264.5 677l1 2-1-2ZM2396.5 677l-1 2 1-2ZM2307.5 678l-1 2 1-2ZM1712.5 681l-1 2 1-2ZM2178.5 681l1 2-1-2ZM582.5 682l1 2-1-2ZM727.5 682l-1 2 1-2ZM1709.5 685l-2 3 2-3ZM2269.5 686l1 2-1-2ZM2391.5 686l-1 2 1-2ZM585.5 687l1 2-1-2ZM724.5 687l-1 2 1-2ZM2302.5 687l-1 2 1-2ZM1704.5 691l-12 13 12-13ZM588.5 692l1 2-1-2ZM721.5 692l-1 2 1-2ZM2274.5 695l1 2-1-2ZM591.5 697l1 2-1-2ZM718.5 697l-1 2 1-2ZM2187.5 697l1 2-1-2ZM715.5 702l-1 2 1-2ZM2382.5 702l-1 2 1-2ZM1688.5 706l-2 3 2-3ZM712.5 707l-1 2 1-2ZM1683.5 710l-1 2 1-2ZM709.5 712l-1 2 1-2ZM2288.5 712l-1 2 1-2ZM1679.5 713l-1 2 1-2ZM2196.5 713l1 2-1-2ZM2285.5 714l1 2-1-2ZM1676.5 715l-1 2 1-2ZM706.5 717l-1 2 1-2ZM703.5 722l-1 2 1-2ZM1664.5 722l-1 2 1-2ZM700.5 727l-1 2 1-2ZM2368.5 727l-1 2 1-2ZM1651.5 728l1.5.5-2.5 1.5 1-2ZM2205.5 729l1 2-1-2ZM697.5 732l-1 2 1-2ZM1652.5 733l1 2-1-2ZM613.5 734l.5 175.5h-1l.5-175.5ZM1657.5 741l1 2-1-2ZM1659.5 744l1 2-1-2ZM1455 745h109.5l2.5 2.5-2.5-1.5H1456v161.5h-1V745ZM2214.5 745l1 2-1-2ZM1567.5 749l1 2-1-2ZM1664.5 752l1 2-1-2ZM2354.5 752l-1 2 1-2ZM1572.5 757l1 2-1-2ZM1574.5 760l1 2-1-2ZM2223.5 761l1 2-1-2ZM1671.5 763l1 2-1-2ZM1579.5 768l1 2-1-2ZM2345.5 768l-1 2 1-2ZM1581.5 771l1 2-1-2ZM1676.5 771l1 2-1-2ZM2232.5 777l1 2-1-2ZM2340.5 777l-1 2 1-2ZM1586.5 779l1 2-1-2ZM1683.5 782l1 2-1-2ZM1593.5 790l1 2-1-2ZM1688.5 790l1 2-1-2ZM1690.5 793l1 2-1-2ZM2241.5 793l1 2-1-2ZM2331.5 793l-1 2 1-2ZM1600.5 801l1 2-1-2ZM1695.5 801l1 2-1-2ZM1700.5 809l1 2-1-2ZM1607.5 812l1 2-1-2ZM1702.5 812l1 2-1-2ZM2254.5 816l1 2-1-2ZM2317.5 818l-1 2 1-2ZM1707.5 820l1 2-1-2ZM1614.5 823l1 2-1-2ZM2313.5 825l-1 2 1-2ZM2260.5 826l3 4-3-4ZM1619.5 831l1 2-1-2ZM1714.5 831l1 2-1-2ZM1621.5 834l1 2-1-2ZM1719.5 839l1 2-1-2ZM1626.5 842l1 2-1-2ZM1628.5 845l1 2-1-2ZM1726.5 850l1 2-1-2ZM1633.5 853l1 2-1-2ZM1635.5 856l1 2-1-2ZM1731.5 858l1 2-1-2ZM1733.5 861l1 2-1-2ZM1640.5 864l1 2-1-2ZM1738.5 869l1 2-1-2ZM1647.5 875l1 2-1-2ZM1743.5 877l1 2-1-2ZM1745.5 880l1 2-1-2ZM1654.5 886l1 2-1-2ZM1750.5 888l1 2-1-2ZM1661.5 897l1 2-1-2ZM1757.5 899l1 2-1-2ZM842.5 904l.5 4.5h-1l.5-4.5ZM1668.5 908l1 2-1-2ZM1221.5 910l1.5 2.5-2-1 .5-1.5ZM843.5 911l1 2-1-2ZM1305.5 912l-3 4 3-4ZM1374.5 912l3 4-3-4ZM2453.5 912l3 4-3-4ZM693.5 913l-1 2 1-2ZM926.5 913l-2 3 2-3ZM1757.5 913l-2 3 2-3ZM1841.5 913l1 2-1-2ZM1919.5 913l-1 2 1-2ZM2040.5 913l2 3-2-3ZM847.5 915l2.5 1.5-1.5.5-1-2ZM1674.5 915l2.5 1.5-1.5.5-1-2ZM2115.5 915l-1 2-1.5-.5 2.5-1.5ZM623.5 917l63.5.5-63.5.5v-1ZM852.5 917l67.5.5-67.5.5v-1ZM1230.5 917l67.5.5-67.5.5v-1ZM1382.5 917l63.5.5-63.5.5v-1ZM1679.5 917l71.5.5-71.5.5v-1ZM1849.5 917l62.5.5-62.5.5v-1ZM2047.5 917l63.5.5-63.5.5v-1ZM2461.5 917l63.5.5-63.5.5v-1ZM1093.5 935l71.5.5-71.5.5v-1ZM1395.5 935l56.5.5-56.5.5v-1ZM1729.5 935l66.5.5-66.5.5v-1ZM2146.5 935l69.5.5-69.5.5v-1ZM2557.5 935l69.5.5-69.5.5v-1ZM2904.5 935l57.5.5-57.5.5v-1ZM3546.5 935l70.5.5-70.5.5v-1ZM1726.5 936l-4 5 4-5ZM2218.5 936l1 2-1-2ZM3543.5 936l-11 12 11-12ZM855.5 937l4 5-4-5ZM1089.5 937l-3 4 3-4ZM1168.5 937l2 3-2-3ZM1455.5 937l2 3-2-3ZM1799.5 937l2 3-2-3ZM2142.5 937l-2 3 2-3ZM2553.5 937l-2 3 2-3ZM2630.5 937l2 3-2-3ZM2900.5 937l-2 3 2-3ZM2965.5 937l1 2-1-2ZM3234.5 938l-1 2 1-2ZM3309.5 938l1 2-1-2ZM780.5 940l-1 2 1-2ZM778.5 943l.5 2.5h-1l.5-2.5ZM1172.5 943l.5 6.5h-1l.5-6.5ZM2138.5 943l.5 484.5h-1l.5-484.5ZM860.5 944l1 238 4.5-3.5-6 4.5.5-239ZM1803.5 944l.5 415.5h-1l.5-415.5ZM2634.5 944l.5 482.5h-1l.5-482.5ZM1082.5 945l-10 11 10-11ZM3230.5 946l.5 479.5h-1l.5-479.5ZM2545.5 950l-1 2 1-2ZM3528.5 952l-10 11 10-11ZM3623.5 952l-3 4 3-4ZM1168.5 955l-6 7 6-7ZM2540.5 959l-1 2 1-2ZM1068.5 960l-9 10 9-10ZM3616.5 960l-7 8 7-8ZM1158.5 966l-6 7 6-7ZM3514.5 967l-9 10 9-10ZM2238.5 969l1 2-1-2ZM3606.5 971l-7 8 7-8ZM1055.5 974l-10 11 10-11ZM1148.5 977l-7 8 7-8ZM2243.5 978l1 2-1-2ZM3501.5 981l-10 11 10-11ZM3596.5 982l-7 8 7-8ZM2526.5 984l-1 2 1-2ZM2248.5 987l1 2-1-2ZM1138.5 988l-7 8 7-8ZM1041.5 989l-9 10 9-10ZM3585.5 994l-6 7 6-7ZM3487.5 996l-9 10 9-10ZM1128.5 999l-7 8 7-8ZM1027.5 1004l-9 10 9-10ZM3575.5 1005l-6 7 6-7ZM2512.5 1009l-1 2 1-2ZM1118.5 1010l-7 8 7-8ZM3473.5 1011l-9 10 9-10ZM3565.5 1016l-7 8 7-8ZM1014.5 1018l-9 10 9-10ZM2507.5 1018l-1 2 1-2ZM1107.5 1022l-6 7 6-7ZM3460.5 1025l-9 10 9-10ZM3555.5 1027l-7 8 7-8ZM2272.5 1030l1 2-1-2ZM1000.5 1033l-9 10 9-10ZM1097.5 1033l-7 8 7-8ZM2498.5 1034l-1 2 1-2ZM3545.5 1038l-7 8 7-8ZM2277.5 1039l1 2-1-2ZM3446.5 1040l-9 10 9-10ZM2493.5 1043l-1 2 1-2ZM1087.5 1044l-7 8 7-8ZM2932.5 1046l1.5 2.5-2-1 .5-1.5ZM987.5 1047l-9 10 9-10ZM2282.5 1048l1 2-1-2ZM3535.5 1049l-7 8 7-8ZM3433.5 1054l-9 10 9-10ZM1077.5 1055l-7 8 7-8ZM3524.5 1061l-6 7 6-7ZM973.5 1062l-9 10 9-10ZM1067.5 1066l-7 8 7-8ZM2479.5 1068l-1 2 1-2ZM3419.5 1069l-9 10 9-10ZM3514.5 1072l-6 7 6-7ZM960.5 1076l-9 10 9-10ZM1056.5 1078l-6 7 6-7ZM2301.5 1082l1 2-1-2ZM3406.5 1083l-9 10 9-10ZM3504.5 1083l-7 8 7-8ZM1046.5 1089l-6 7 6-7ZM946.5 1091l-9 10 9-10ZM2306.5 1091l1 2-1-2ZM2465.5 1093l-1 2 1-2ZM3494.5 1094l-7 8 7-8ZM2220 1097l2 .5-1 1-.5 329.5-.5-331ZM3392.5 1098l-9 10 9-10ZM1036.5 1100l-7 8 7-8ZM2311.5 1100l1 2-1-2ZM2460.5 1102l-1 2 1-2ZM933.5 1105l-10 11 10-11ZM3484.5 1105l-7 8 7-8ZM2316.5 1109l1 2-1-2ZM1026.5 1111l-7 8 7-8ZM2229.5 1112l1 2-1-2ZM3379.5 1112l-10 11 10-11ZM3473.5 1117l-6 7 6-7ZM2451.5 1118l-1 2 1-2ZM2539.5 1119l-1 2 1-2ZM919.5 1120l-9 10 9-10ZM1016.5 1122l-7 8 7-8ZM2446.5 1127l-1 2 1-2ZM3365.5 1127l-9 10 9-10ZM2238.5 1128l1 2-1-2ZM3463.5 1128l-6 7 6-7ZM906.5 1134l-10 11 10-11ZM1005.5 1134l-6 7 6-7ZM2530.5 1135l-1 2 1-2ZM3453.5 1139l-7 8 7-8ZM3351.5 1142l-9 10 9-10ZM2335.5 1143l1 2-1-2ZM2247.5 1144l1 2-1-2ZM2525.5 1144l-1 2 1-2ZM995.5 1145l-6 7 6-7ZM892.5 1149l-9 10 9-10ZM3443.5 1150l-7 8 7-8ZM2340.5 1152l1 2-1-2ZM2432.5 1152l-1 2 1-2ZM985.5 1156l-.5 1.5-.5 1.5-.5-1.5 1.5-1.5ZM3338.5 1156l-9 10 9-10ZM3437.5 1159l2 3-2-3ZM2256.5 1160l1 2-1-2ZM2516.5 1160l-1 2 1-2ZM986.5 1161l2 3-2-3ZM2345.5 1161l1 2-1-2ZM3440.5 1163l2 3-2-3ZM878.5 1164l-9 10 9-10ZM989.5 1165l2 3-2-3ZM3444.5 1168l1 2-1-2ZM993.5 1170l1 2-1-2ZM2350.5 1170l1 2-1-2ZM3324.5 1171l-9 10 9-10ZM3447.5 1172l1 2-1-2ZM996.5 1174l1 2-1-2ZM2265.5 1176l1 2-1-2ZM3450.5 1176l1 2-1-2ZM2418.5 1177l-1 2 1-2ZM999.5 1178l1 2-1-2ZM3453.5 1180l1 2-1-2ZM1002.5 1182l1 2-1-2ZM3456.5 1184l1 2-1-2ZM2502.5 1185l-1 2 1-2ZM1005.5 1186l1 2-1-2ZM3459.5 1188l2 3-2-3ZM1008.5 1190l2 3-2-3ZM2274.5 1192l1 2-1-2ZM3462.5 1192l2 3-2-3ZM1011.5 1194l2 3-2-3ZM3465.5 1196l2 3-2-3ZM1014.5 1198l2 3-2-3ZM2493.5 1201l-1 2 1-2ZM3469.5 1201l1 2-1-2ZM2404.5 1202l-1 2 1-2ZM1018.5 1203l1 2-1-2ZM2369.5 1204l1 2-1-2ZM3472.5 1205l1 2-1-2ZM1021.5 1207l1 2-1-2ZM2283.5 1208l1 2-1-2ZM931.5 1209l2 3-2-2-13.5 12.5 13.5-13.5ZM3475.5 1209l1 2-1-2ZM2488.5 1210l-1 2 1-2ZM1024.5 1211l1 2-1-2ZM2399.5 1211l-1 2 1-2ZM3386.5 1212l1 2-1-2ZM2374.5 1213l1 2-1-2ZM3478.5 1213l1 2-1-2ZM935.5 1214l1 2-1-2ZM1027.5 1215l1 2-1-2ZM3389.5 1216l1 2-1-2ZM3376.5 1217l-18 19 18-19ZM3481.5 1217l2 3-2-3ZM938.5 1218l1 2-1-2ZM1030.5 1219l2 3-2-3ZM3392.5 1220l1 2-1-2ZM3484.5 1221l2 3-2-3ZM941.5 1222l1 2-1-2ZM2379.5 1222l1 2-1-2ZM1033.5 1223l2 3-2-3ZM3395.5 1224l1 2-1-2ZM2860.5 1225l1 1 141.5.5-143 .5.5-2ZM3487.5 1225l2 3-2-3ZM944.5 1226l1 2-1-2ZM1351.5 1226l142.5.5-142.5.5v-1ZM2479.5 1226l-1 2 1-2ZM1036.5 1227l2 3-2-3ZM2390.5 1227l-1 2 1-2ZM3398.5 1228l1 2-1-2ZM911.5 1230l-18 19 18-19ZM947.5 1230l1 2-1-2ZM3491.5 1230l1 2-1-2ZM2296.5 1231l1 2-1-2ZM1040.5 1232l1 2-1-2ZM3401.5 1232l1 2-1-2ZM950.5 1234l1 2-1-2ZM3494.5 1234l1 2-1-2ZM1043.5 1236l1 2-1-2ZM3404.5 1236l1 2-1-2ZM953.5 1238l1 2-1-2ZM3497.5 1238l1 2-1-2ZM1046.5 1240l1 2-1-2ZM3407.5 1240l1 2-1-2ZM956.5 1242l1 2-1-2ZM3500.5 1242l1 2-1-2ZM3351.5 1243l-17 18 17-18ZM1049.5 1244l1 2-1-2ZM3410.5 1244l1 2-1-2ZM959.5 1246l1 2-1-2ZM3503.5 1246l1 2-1-2ZM2305.5 1247l1 2-1-2ZM1052.5 1248l1 2-1-2ZM3413.5 1248l1 2-1-2ZM962.5 1250l1 2-1-2ZM3506.5 1250l2 3-2-3ZM2465.5 1251l-1 2 1-2ZM1055.5 1252l2 3-2-3ZM3416.5 1252l1 2-1-2ZM964.5 1253l2 3-2-3ZM3509.5 1254l2 3-2-3ZM886.5 1256l-17 18 17-18ZM1058.5 1256l2 3-2-3ZM3419.5 1256l1 2-1-2ZM967.5 1257l2 3-2-3ZM3513.5 1259l1 2-1-2ZM3422.5 1260l1 2-1-2ZM970.5 1261l2 3-2-3ZM1062.5 1261l1 2-1-2ZM2314.5 1263l1 2-1-2ZM3424.5 1263l2 3-2-3ZM3516.5 1263l1 2-1-2ZM973.5 1265l2 3-2-3ZM1065.5 1265l1 2-1-2ZM2456.5 1267l-1 2 1-2ZM3427.5 1267l2 3-2-3ZM3519.5 1267l1 2-1-2ZM3327.5 1268l-14 15 14-15ZM976.5 1269l2 3-2-3ZM1068.5 1269l1 2-1-2ZM3430.5 1271l2 3-2-3ZM3522.5 1271l1 2-1-2ZM979.5 1273l2 3-2-3ZM1071.5 1273l1 2-1-2ZM3433.5 1275l2 3-2-3ZM3525.5 1275l1 2-1-2ZM2451.5 1276l-1 2 1-2ZM982.5 1277l2 3-2-3ZM1074.5 1277l1 2-1-2ZM2323.5 1279l1 2-1-2ZM3436.5 1279l2 3-2-3ZM3528.5 1279l2 3-2-3ZM862.5 1281l-1.5 2.5-.5 144.5-.5-144.5 2.5-2.5ZM985.5 1281l1 2-1-2ZM1077.5 1281l2 3-2-3ZM3439.5 1283l2 3-2-3ZM3531.5 1283l2 3-2-3ZM988.5 1285l1 2-1-2ZM1080.5 1285l2 3-2-3ZM3442.5 1287l1 2-1-2ZM3534.5 1287l2 3-2-3ZM991.5 1289l1 2-1-2ZM1083.5 1289l2 3-2-3ZM3445.5 1291l1 2-1-2ZM2442.5 1292l-1 2 1-2ZM3538.5 1292l1 2-1-2ZM994.5 1293l1 2-1-2ZM1087.5 1294l1 2-1-2ZM1329 1295l187 .5-185.5.5-1 1-.5-2ZM2332.5 1295l1 2-1-2ZM2839.5 1295h185l1.5 1.5-1.5-.5h-185v-1ZM3448.5 1295l1 2-1-2ZM3541.5 1296l1 2-1-2ZM997.5 1297l1 2-1-2ZM1090.5 1298l1 2-1-2ZM3451.5 1299l1 2-1-2ZM3544.5 1300l1 2-1-2ZM1000.5 1301l1 2-1-2ZM1093.5 1302l1 2-1-2ZM3454.5 1303l1 2-1-2ZM3547.5 1304l1 2-1-2ZM1003.5 1305l1 2-1-2ZM1096.5 1306l1 2-1-2ZM3457.5 1307l1 2-1-2ZM3550.5 1308l2 3-2-3ZM1006.5 1309l1 2-1-2ZM1099.5 1310l2 3-2-3ZM2341.5 1311l1 2-1-2ZM3460.5 1311l1 2-1-2ZM3553.5 1312l2 3-2-3ZM1009.5 1313l1 2-1-2ZM1102.5 1314l2 3-2-3ZM3463.5 1315l1 2-1-2ZM3556.5 1316l2 3-2-3ZM1012.5 1317l1 2-1-2ZM2428.5 1317l-1 2 1-2ZM1105.5 1318l2 3-2-3ZM3466.5 1319l1 2-1-2ZM1015.5 1321l1 2-1-2ZM3560.5 1321l1 2-1-2ZM1109.5 1323l1 2-1-2ZM3469.5 1323l1 2-1-2ZM1018.5 1325l1 2-1-2ZM3563.5 1325l1 2-1-2ZM1112.5 1327l1 2-1-2ZM2350.5 1327l1 2-1-2ZM3472.5 1327l1 2-1-2ZM1021.5 1329l1 2-1-2ZM3566.5 1329l1 2-1-2ZM1115.5 1331l1 2-1-2ZM3475.5 1331l1 2-1-2ZM1024.5 1333l1 2-1-2ZM2419.5 1333l-1 2 1-2ZM3569.5 1333l1 2-1-2ZM1118.5 1335l1 2-1-2ZM3478.5 1335l1 2-1-2ZM1027.5 1337l1 2-1-2ZM3572.5 1337l1 2-1-2ZM1121.5 1339l1 2-1-2ZM3481.5 1339l1 2-1-2ZM1030.5 1341l1 2-1-2ZM3575.5 1341l2 3-2-3ZM2414.5 1342l-1 2 1-2ZM1124.5 1343l2 3-2-3ZM2359.5 1343l1 2-1-2ZM3484.5 1343l1 2-1-2ZM1033.5 1345l1 2-1-2ZM2412.5 1345l-2 3 2-3ZM3578.5 1345l2 3-2-3ZM1127.5 1347l2 3-2-3ZM2363.5 1347l2.5 1.5-1.5.5-1-2ZM3487.5 1347l1 2-1-2ZM1036.5 1349l1 2-1-2ZM2368.5 1349l37.5.5-37.5.5v-1ZM3582.5 1350l1 2-1-2ZM3490.5 1351l1 2-1-2ZM1131.5 1352l1 2-1-2ZM1039.5 1353l1 2-1-2ZM3585.5 1354l1 2-1-2ZM3493.5 1355l1 2-1-2ZM1134.5 1356l1 2-1-2ZM1042.5 1357l1 2-1-2ZM3588.5 1358l1 2-1-2ZM3496.5 1359l1 2-1-2ZM1137.5 1360l1 2-1-2ZM1045.5 1361l1 2-1-2ZM2065.5 1361l3 4-3-4ZM3591.5 1362l1 2-1-2ZM3499.5 1363l1 2-1-2ZM1140.5 1364l1 2-1-2ZM1048.5 1365l1 2-1-2ZM3594.5 1366l1 2-1-2ZM3502.5 1367l1 2-1-2ZM1050.5 1368l2 3-2-3ZM1143.5 1368l1 2-1-2ZM2070.5 1369l.5 57.5h-1l.5-57.5ZM3597.5 1370l2 3-2-3ZM3505.5 1371l1 2-1-2ZM1053.5 1372l2 3-2-3ZM1146.5 1372l2 3-2-3ZM3507.5 1374l2 3-2-3ZM3600.5 1374l2 3-2-3ZM1056.5 1376l2 3-2-3ZM1149.5 1376l2 3-2-3ZM3510.5 1378l2 3-2-3ZM3603.5 1378l2 3-2-3ZM1059.5 1380l2 3-2-3ZM1152.5 1380l2 3-2-3ZM3513.5 1382l2 3-2-3ZM3607.5 1383l1 2-1-2ZM1062.5 1384l2 3-2-3ZM1156.5 1385l1 2-1-2ZM3516.5 1386l2 3-2-3ZM3610.5 1387l1 2-1-2ZM1065.5 1388l2 3-2-3ZM1159.5 1389l1 2-1-2ZM3519.5 1390l2 3-2-3ZM3613.5 1391l1 2-1-2ZM1068.5 1392l1 2-1-2ZM1162.5 1393l1 2-1-2ZM3522.5 1394l2 3-2-3ZM3616.5 1395l1 2-1-2ZM1071.5 1396l1 2-1-2ZM1165.5 1397l1 2-1-2ZM3525.5 1398l1 2-1-2ZM3619.5 1399l2 3-2-3ZM1074.5 1400l1 2-1-2ZM1168.5 1401l2 3-2-3ZM3528.5 1402l1 2-1-2ZM3622.5 1403l2 3-2-3ZM1077.5 1404l1 2-1-2ZM1171.5 1405l2 3-2-3ZM3531.5 1406l1 2-1-2ZM3625.5 1407l2 3-2-3ZM1080.5 1408l1 2-1-2ZM1174.5 1409l2 3-2-3ZM3534.5 1410l1 2-1-2ZM1083.5 1412l1 2-1-2ZM3629.5 1412l1 2-1-2ZM1178.5 1414l1 2-1-2ZM3537.5 1414l1 2-1-2ZM1086.5 1416l1 2-1-2ZM3632.5 1416l1 2-1-2ZM3540.5 1418l1 2-1-2ZM1089.5 1420l1 2-1-2ZM1183.5 1422l.5 4.5h-1l.5-4.5ZM2700.5 1422l.5 5.5h-1l.5-5.5ZM3543.5 1422l1 2-1-2ZM1190.5 1423l.5 2.5h-1l.5-2.5ZM1092.5 1424l1 2-1-2ZM3546.5 1426l1 2-1-2ZM1095.5 1428l1 2-1-2ZM1569.5 1428l1.5 2.5-2-1 .5-1.5ZM1654.5 1428l.5 1.5-2 1 1.5-2.5ZM3231.5 1428l1.5 2.5-2-1 .5-1.5ZM1722.5 1430l4 5-4-5ZM2553.5 1430l4 5-4-5ZM2785.5 1430l-3 4 3-4ZM3163.5 1430l-4 5 4-5ZM3549.5 1430l3 4-3-4ZM3634.5 1430l-1 2 1-2ZM780.5 1431l2 3-2-3ZM858.5 1431l-2 3 2-3ZM1181.5 1431l-2 3 2-3ZM2140.5 1431l2 3-2-3ZM2218.5 1431l-2 3 2-3ZM2632.5 1431l-2 3 2-3ZM2702.5 1431l2 3-2-3ZM3080.5 1431l2 3-2-3ZM2067.5 1432l-1 2 1-2ZM3631.5 1433l-1 2 1-2ZM786.5 1435l66.5.5-66.5.5v-1ZM1103.5 1435l72.5.5-72.5.5v-1ZM1198.5 1435l71.5.5-71.5.5v-1ZM1576.5 1435l71.5.5-71.5.5v-1ZM1729.5 1435l333.5.5-333.5.5v-1ZM2146.5 1435l66.5.5-66.5.5v-1ZM2560.5 1435l66.5.5-66.5.5v-1ZM2708.5 1435l70.5.5-70.5.5v-1ZM3086.5 1435l70.5.5-70.5.5v-1ZM3238.5 1435l67.5.5-67.5.5v-1ZM3556.5 1435l71.5.5-71.5.5v-1ZM2234 1436l87 .5-86 1 .5 1.5-1.5-3ZM2867.5 1436l86.5.5-86.5.5v-1ZM2374.5 1438l-1 2 1-2ZM2236.5 1440l1 2-1-2ZM2372.5 1441l-1 2 1-2ZM2238.5 1443l1 2-1-2ZM2370.5 1444l-1 2 1-2ZM2874.5 1447l1 2-1-2ZM3000.5 1449l-1 2 1-2ZM2876.5 1450l1 2-1-2ZM583.5 1451l11.5.5-11.5.5v-1ZM1955.5 1451l11.5.5-11.5.5v-1ZM2618.5 1451l11.5.5-11.5.5v-1ZM564.5 1452l6.5.5-6.5.5v-1ZM608.5 1452l6.5.5-6.5.5v-1ZM1938.5 1452l5.5.5-5.5.5v-1ZM1980.5 1452l6.5.5-6.5.5v-1ZM2599.5 1452l6.5.5-6.5.5v-1ZM2643.5 1452l6.5.5-6.5.5v-1ZM2998.5 1452l-1 2 1-2ZM554.5 1453l4.5.5-4.5.5v-1ZM620.5 1453l4.5.5-4.5.5v-1ZM1929.5 1453l3.5.5-3.5.5v-1ZM1992.5 1453l3.5.5-3.5.5v-1ZM2590.5 1453l3.5.5-3.5.5v-1ZM2655.5 1453l4.5.5-4.5.5v-1ZM2878.5 1453l1 2-1-2ZM547.5 1454l2.5.5-2.5.5v-1ZM628.5 1454l3.5.5-3.5.5v-1ZM1923.5 1454l2.5.5-2.5.5v-1ZM2000.5 1454l3.5.5-3.5.5v-1ZM2582.5 1454l3.5.5-3.5.5v-1ZM2664.5 1454l2.5.5-2.5.5v-1ZM541.5 1455l2.5.5-2.5.5v-1ZM635.5 1455l2.5.5-2.5.5v-1ZM1515.5 1455l6.5.5-6.5.5v-1ZM1917.5 1455l2.5.5-2.5.5v-1ZM2007.5 1455l2.5.5-2.5.5v-1ZM2576.5 1455l2.5.5-2.5.5v-1ZM2996.5 1455l-1 2 1-2ZM535.5 1456l2.5.5-2.5.5v-1ZM641.5 1456l2.5.5-2.5.5v-1ZM1526.5 1456l3.5.5-3.5.5v-1ZM1912.5 1456l2.5.5-2.5.5v-1ZM2676.5 1456l2.5.5-2.5.5v-1ZM2880.5 1456l1 2-1-2ZM863.5 1457l-1 2 1-2ZM1196.5 1457l2 3-2-3ZM1533.5 1457l2.5.5-2.5.5v-1ZM2681.5 1457l2.5.5-2.5.5v-1ZM2994.5 1458l-1 2 1-2ZM2249.5 1459l1 2-1-2ZM2882.5 1459l1 2-1-2ZM2992.5 1461l-1 2 1-2ZM2251.5 1462l1 2-1-2ZM2990.5 1464l-1 2 1-2ZM859.5 1465l.5 479.5h-1l.5-479.5ZM1200.5 1465l.5 55.5h-1l.5-55.5ZM2253.5 1465l1 2-1-2ZM2988.5 1467l-1 2 1-2ZM2255.5 1468l1 2-1-2ZM2986.5 1470l-1 2 1-2ZM2257.5 1471l1 2-1-2ZM2984.5 1473l-1 2 1-2ZM2893.5 1475l1 2-1-2ZM1583.5 1476l1 2-1-2ZM2982.5 1476l-1 2 1-2ZM477.5 1477l-1 2 1-2ZM1586.5 1478l1 2-1-2ZM2895.5 1478l1 2-1-2ZM2509.5 1479l-1 2 1-2ZM2980.5 1479l-1 2 1-2ZM472.5 1480l-1 2 1-2ZM1589.5 1480l1 2-1-2ZM1850.5 1480l-1 2 1-2ZM712.5 1481l1 2-1-2ZM2079.5 1481l1 2-1-2ZM2897.5 1481l1 2-1-2ZM469.5 1482l-1 2 1-2ZM1592.5 1482l1 2-1-2ZM2978.5 1482l-1 2 1-2ZM1845.5 1483l-1 2 1-2ZM2082.5 1483l1 2-1-2ZM2751.5 1483l1 2-1-2ZM466.5 1484l-1 2 1-2ZM2899.5 1484l1 2-1-2ZM1596.5 1485l2 3-2-3ZM2085.5 1485l1 2-1-2ZM2500.5 1485l-1 2 1-2ZM2976.5 1485l-1 2 1-2ZM462.5 1487l-1 2 1-2ZM2088.5 1487l1 2-1-2ZM2268.5 1487l1 2-1-2ZM2901.5 1487l1 2-1-2ZM2496.5 1488l-1 2 1-2ZM2974.5 1488l-1 2 1-2ZM1601.5 1489l3 4-3-4ZM458.5 1490l-2 3 2-3ZM2092.5 1490l1 2-1-2ZM2270.5 1490l1 2-1-2ZM729.5 1491l1 2-1-2ZM2339.5 1491l-1 2 1-2ZM2492.5 1491l-3 4 3-4ZM732.5 1493l1 2-1-2ZM1830.5 1493l-1 2 1-2ZM2096.5 1493l2 3-2-3ZM2272.5 1493l1 2-1-2ZM453.5 1494l-13 14 13-14ZM2337.5 1494l-1 2 1-2ZM735.5 1495l1 2-1-2ZM1827.5 1495l-2 3 2-3ZM1609.5 1496l6 7-6-7ZM2274.5 1496l1 2-1-2ZM738.5 1497l1 2-1-2ZM2101.5 1497l3 4-3-4ZM2335.5 1497l-1 2 1-2ZM2485.5 1497l-7 8 7-8ZM1823.5 1498l-2 3 2-3ZM2276.5 1499l1 2-1-2ZM2776.5 1499l1 2-1-2ZM742.5 1500l1 2-1-2ZM2333.5 1500l-1 2 1-2ZM1818.5 1502l-3 4 3-4ZM2780.5 1502l1 2-1-2ZM746.5 1503l1 2-1-2ZM2108.5 1503l14 15-14-15ZM2331.5 1503l-1 2 1-2ZM2912.5 1503l1 2-1-2ZM2784.5 1505l2 3-2-3ZM750.5 1506l5 6-5-6ZM2329.5 1506l-1 2 1-2ZM2914.5 1506l1 2-1-2ZM1619.5 1507l3 4-3-4ZM1811.5 1508l-19 20 19-20ZM2475.5 1508l-3 4 3-4ZM2327.5 1509l-1 2 1-2ZM2916.5 1509l1 2-1-2ZM437.5 1511l-2 3 2-3ZM2325.5 1512l-1 2 1-2ZM2918.5 1512l1 2-1-2ZM756.5 1513l.5 2.5h-1l.5-2.5ZM1624.5 1513l2 3-2-3ZM2470.5 1514l-1 2 1-2ZM2287.5 1515l1 2-1-2ZM2323.5 1515l-1 2 1-2ZM2920.5 1515l1 2-1-2ZM433.5 1516l-1 2 1-2ZM1628.5 1518l1 2-1-2ZM2289.5 1518l1 2-1-2ZM2321.5 1518l-1 2 1-2ZM2467.5 1518l-1 2 1-2ZM431.5 1519l-1 2 1-2ZM1630.5 1521l1 2-1-2ZM2125.5 1521l3 4-3-4ZM2291.5 1521l1 2-1-2ZM2319.5 1521l-1 2 1-2ZM2465.5 1521l-1 2 1-2ZM429.5 1522l-1 2 1-2ZM2790.5 1523l-1 2 1-2ZM2293.5 1524l1 2-1-2ZM2317.5 1524l-1 2 1-2ZM2463.5 1524l-1 2 1-2ZM427.5 1525l-1 2 1-2ZM574.5 1527l24.5.5-24.5.5v-1ZM1197.5 1527l-1 2 1-2ZM2130.5 1527l2 3-2-3ZM2295.5 1527l1 2-1-2ZM2315.5 1527l-1 2 1-2ZM2609.5 1527l24.5.5-24.5.5v-1ZM562.5 1528l4.5.5-4.5.5v-1ZM605.5 1528l4.5.5-4.5.5v-1ZM1945.5 1528l6.5.5-6.5.5v-1ZM1967.5 1528l6.5.5-6.5.5v-1ZM2597.5 1528l4.5.5-4.5.5v-1ZM2641.5 1528l3.5.5-3.5.5v-1ZM555.5 1529l2.5.5-2.5.5v-1ZM614.5 1529l2.5.5-2.5.5v-1ZM1937.5 1529l3.5.5-3.5.5v-1ZM1979.5 1529l3.5.5-3.5.5v-1ZM2590.5 1529l2.5.5-2.5.5v-1ZM2649.5 1529l2.5.5-2.5.5v-1ZM424.5 1530l-1 2 1-2ZM549.5 1530l2.5.5-2.5.5v-1ZM620.5 1530l2.5.5-2.5.5v-1ZM1190.5 1530l2.5.5-2.5.5v-1ZM1636.5 1530l1 2-1-2ZM1986.5 1530l2.5.5-2.5.5v-1ZM2584.5 1530l2.5.5-2.5.5v-1ZM2655.5 1530l2.5.5-2.5.5v-1ZM2786.5 1530l-1 2 1-2ZM1373.5 1531l.5 176.5h-1l.5-176.5ZM1511.5 1531l2.5.5-2.5.5v-1ZM1789.5 1531l-3 4 3-4ZM2133.5 1531l2 3-2-3ZM2931.5 1531l1 2-1-2ZM2933.5 1534l1 2-1-2ZM1639.5 1535l1 2-1-2ZM2136.5 1535l1 2-1-2ZM2943.5 1535l-1 2 1-2ZM1531.5 1537l2.5 1.5-1.5-.5-1-1ZM1784.5 1537l-2 3 2-3ZM2782.5 1537l-1 2 1-2ZM2935.5 1537l1 2-1-2ZM2941.5 1538l-1 2 1-2ZM2557.5 1539l-1 2 1-2ZM2937.5 1540l2.5 1.5-1.5.5-1-2ZM1539.5 1541l1 2-1-2ZM1780.5 1542l-1 2 1-2ZM2552.5 1542l-1 2 1-2ZM515.5 1543l-1 2 1-2ZM1542.5 1543l2 3-2-3ZM1894.5 1544l-1 2 1-2ZM2549.5 1544l-2 3 2-3ZM742.5 1545l-1 2 1-2ZM1777.5 1546l-1 2 1-2ZM510.5 1547l-6 7 6-7ZM1547.5 1547l9 10-9-10ZM1889.5 1547l-1 2 1-2ZM2144.5 1547l1 2-1-2ZM2038.5 1549l1 2-1-2ZM2543.5 1549l-1 2 1-2ZM1883.5 1551l-1 2 1-2ZM2041.5 1551l1 2-1-2ZM738.5 1552l-1 2 1-2ZM2262 1552h82.5l.5.5v395h-1v-394l-.5-.5H2263l-.5 395-.5-396ZM2895.5 1552h82l.5.5v394h-1v-393l-.5-.5h-81v-1ZM1880.5 1553l-1 2 1-2ZM2044.5 1553l1 2-1-2ZM2719.5 1553l1 2-1-2ZM2539.5 1554l-2 3 2-3ZM687.5 1555l1 2-1-2ZM502.5 1556l-1 2 1-2ZM1876.5 1556l-2 3 2-3ZM2048.5 1556l2 3-2-3ZM690.5 1557l1 2-1-2ZM2727.5 1558l1 2-1-2ZM693.5 1559l1 2-1-2ZM734.5 1559l-1 2 1-2ZM1558.5 1559l2 3-2-3ZM1871.5 1560l-4 5 4-5ZM2054.5 1561l11 12-11-12ZM2534.5 1561l-1 2 1-2ZM2731.5 1561l1 2-1-2ZM697.5 1562l1 2-1-2ZM1561.5 1563l1 2-1-2ZM2767.5 1563l-1 2 1-2ZM1765.5 1564l-1 2 1-2ZM2735.5 1564l4 5-4-5ZM701.5 1565l10 11-10-11ZM1563.5 1566l1 2-1-2ZM2444.5 1570l.5 2.5h-1l.5-2.5ZM2763.5 1570l-1 2 1-2ZM727.5 1571l-1 2 1-2ZM1566.5 1571l1 2-1-2ZM2743.5 1572l2 3-2-3ZM2761.5 1573l-1 2 1-2ZM408.5 1574l.5 2.5h-1l.5-2.5ZM1857.5 1574l-5 6 5-6ZM2067.5 1575l3 4-3-4ZM2148.5 1576l-1 2 1-2ZM2443.5 1576l.5 2.5h-1l.5-2.5ZM2145.5 1578l-1 2 1-2ZM2527.5 1578l.5 2.5h-1l.5-2.5ZM407.5 1580l.5 3.5h-1l.5-3.5ZM491.5 1581l.5 3.5h-1l.5-3.5ZM2072.5 1581l1 2-1-2ZM1850.5 1582l-1 2 1-2ZM2138.5 1583l-1 2 1-2ZM2442.5 1583l.5 4.5h-1l.5-4.5ZM2074.5 1584l1 2-1-2ZM2526.5 1584l.5 3.5h-1l.5-3.5ZM2135.5 1585l-1 2 1-2ZM1659.5 1586l.5 2.5h-1l.5-2.5ZM1847.5 1586l-1 2 1-2ZM2132.5 1587l-1 2 1-2ZM406.5 1589l.5 8.5h-1l.5-8.5ZM490.5 1590l.5 8.5h-1l.5-8.5ZM1844.5 1590l-1 2 1-2ZM1660.5 1591l.5 2.5h-1l.5-2.5ZM2125.5 1592l-1 2 1-2ZM1842.5 1593l-1 2 1-2ZM2080.5 1593l1 2-1-2ZM2122.5 1594l-1 2 1-2ZM2441.5 1595l.5 17.5h-1l.5-17.5ZM1840.5 1596l-1 2 1-2ZM1577.5 1598l.5 2.5h-1l.5-2.5ZM1661.5 1598l.5 3.5h-1l.5-3.5ZM2115.5 1599l-1 2 1-2ZM1837.5 1601l-1 2 1-2ZM2112.5 1601l-1 2 1-2ZM2526.5 1601l.5 4.5h-1l.5-4.5ZM1578.5 1603l.5 3.5h-1l.5-3.5ZM2109.5 1603l-1 2 1-2ZM491.5 1605l.5 2.5h-1l.5-2.5ZM2087.5 1605l3 4-3-4ZM1662.5 1608l.5 22.5h-1l.5-22.5ZM2527.5 1608l.5 2.5h-1l.5-2.5ZM406.5 1610l.5 7.5h-1l.5-7.5ZM1579.5 1612l.5 14.5h-1l.5-14.5ZM2442.5 1620l.5 3.5h-1l.5-3.5ZM407.5 1623l.5 3.5h-1l.5-3.5ZM498.5 1624l1 2-1-2ZM2534.5 1625l3 4-3-4ZM501.5 1628l3 4-3-4ZM2443.5 1628l.5 2.5h-1l.5-2.5ZM408.5 1630l.5 2.5h-1l.5-2.5ZM2540.5 1631l3 4-3-4ZM1578.5 1632l.5 3.5h-1l.5-3.5ZM507.5 1633l2 3-2-3ZM511.5 1636l1 2-1-2ZM1661.5 1637l.5 4.5h-1l.5-4.5ZM1577.5 1638l.5 2.5h-1l.5-2.5ZM1660.5 1645l.5 2.5h-1l.5-2.5ZM1659.5 1651l.5 2.5h-1l.5-2.5ZM1730.5 1655l.5 2.5h-1l.5-2.5ZM1658.5 1656l.5 2.5h-1l.5-2.5ZM1729.5 1661l.5 2.5h-1l.5-2.5ZM419.5 1663l1 2-1-2ZM1813.5 1663l.5 2.5h-1l.5-2.5ZM2626.5 1664l2.5.5-2.5.5v-1ZM1161.5 1665l4 5-4-5ZM599.5 1666l2.5.5-2.5.5v-1ZM422.5 1668l1 2-1-2ZM1728.5 1668l.5 3.5h-1l.5-3.5ZM2643.5 1668l2.5.5-2.5.5v-1ZM1812.5 1669l.5 2.5h-1l.5-2.5ZM2458.5 1669l1 2-1-2ZM2652.5 1670l2.5.5-2.5.5v-1ZM424.5 1671l1 2-1-2ZM1166.5 1672l.5 55.5h-1l.5-55.5ZM1565.5 1672l-1 2 1-2ZM2460.5 1672l1 2-1-2ZM427.5 1675l1 2-1-2ZM1811.5 1675l.5 3.5h-1l.5-3.5ZM2463.5 1676l2 3-2-3ZM1727.5 1677l.5 4.5h-1l.5-4.5ZM1561.5 1678l-1 2 1-2ZM430.5 1679l13 14-13-14ZM1559.5 1681l-3 4 3-4ZM2467.5 1681l9 10-9-10ZM1810.5 1683l.5 4.5h-1l.5-4.5ZM1726.5 1691l.5 25.5h-1l.5-25.5ZM1548.5 1692l-2 3 2-3ZM2480.5 1693l2 3-2-3ZM446.5 1694l2 3-2-3ZM1543.5 1696l-1 2 1-2ZM1809.5 1696l.5 17.5h-1l.5-17.5ZM2484.5 1696l1 2-1-2ZM450.5 1697l1 2-1-2ZM1995.5 1697l-1 2 1-2ZM2164.5 1697l1 2-1-2ZM2488.5 1699l1 2-1-2ZM2491.5 1701l1 2-1-2ZM1639.5 1706l-1 2 1-2ZM1510.5 1707l5.5.5-5.5.5v-1ZM2501.5 1707l1 2-1-2ZM723.5 1709l1 2-1-2ZM726.5 1711l1 2-1-2ZM2764.5 1713l1 2-1-2ZM730.5 1714l1 2-1-2ZM1633.5 1715l-1 2 1-2ZM2768.5 1716l1 2-1-2ZM734.5 1717l2 3-2-3ZM1631.5 1718l-1 2 1-2ZM2772.5 1719l5 6-5-6ZM739.5 1721l11 12-11-12ZM1628.5 1722l-2 3 2-3ZM1810.5 1722l.5 4.5h-1l.5-4.5ZM1727.5 1724l.5 5.5h-1l.5-5.5ZM1623.5 1728l-14 15 14-15ZM2782.5 1729l5 6-5-6ZM1811.5 1732l.5 2.5h-1l.5-2.5ZM1728.5 1734l.5 3.5h-1l.5-3.5ZM752.5 1735l2 3-2-3ZM942.5 1736l214.5.5-214.5.5v-1ZM2789.5 1737l2 3-2-3ZM1812.5 1738l.5 2.5h-1l.5-2.5ZM756.5 1740l1 2-1-2ZM2792.5 1741l1 2-1-2ZM1729.5 1742l.5 2.5h-1l.5-2.5ZM758.5 1743l1 2-1-2ZM2794.5 1744l1 2-1-2ZM1605.5 1745l-2 3 2-3ZM760.5 1746l1 2-1-2ZM2796.5 1747l1 2-1-2ZM1730.5 1748l.5 2.5h-1l.5-2.5ZM1600.5 1749l-1 2 1-2ZM763.5 1751l1 2-1-2ZM1597.5 1751l-1 2 1-2ZM1594.5 1753l-1 2 1-2ZM1731.5 1753l.5 2.5h-1l.5-2.5ZM1591.5 1755l-1 2 1-2ZM1993.5 1757l1 2-1-2ZM1732.5 1758l.5 2.5h-1l.5-2.5ZM1996.5 1760l1 2-1-2ZM2000.5 1762l94.5.5-94.5.5v-1ZM1569.5 1766l1.5.5-2.5 1.5 1-2ZM660.5 1772l1 2-1-2ZM2697.5 1773l1 2-1-2ZM1572.5 1774l1 2-1-2ZM665.5 1775l1 2-1-2ZM668.5 1777l1 2-1-2ZM1574.5 1777l1 2-1-2ZM774.5 1778l.5 2.5h-1l.5-2.5ZM2706.5 1779l2 3-2-3ZM672.5 1780l9 10-9-10ZM2810.5 1781l.5 2.5h-1l.5-2.5ZM1374.5 1783l108.5.5-109 .5-.5 163-.5-162.5 1.5-1.5ZM1579.5 1785l1 2-1-2ZM2811.5 1786l.5 2.5h-1l.5-2.5ZM776.5 1788l.5 2.5h-1l.5-2.5ZM2716.5 1789l2 3-2-3ZM1487.5 1790l1 2-1-2ZM683.5 1792l1 2-1-2ZM2812.5 1792l.5 3.5h-1l.5-3.5ZM1584.5 1793l1 2-1-2ZM2719.5 1793l1 2-1-2ZM777.5 1795l.5 4.5h-1l.5-4.5ZM1586.5 1796l1 2-1-2ZM1494.5 1801l1 2-1-2ZM2813.5 1802l.5 10.5h-1l.5-10.5ZM1835.5 1803l1 2-1-2ZM1591.5 1804l1 2-1-2ZM778.5 1807l.5 16.5h-1l.5-16.5ZM1838.5 1808l1 2-1-2ZM2726.5 1810l.5 2.5h-1l.5-2.5ZM1840.5 1811l1 2-1-2ZM691.5 1812l.5 4.5h-1l.5-4.5ZM1501.5 1812l1 2-1-2ZM1842.5 1814l1 2-1-2ZM2094.5 1814l-3 4 3-4ZM1598.5 1815l1 2-1-2ZM1844.5 1817l1 2-1-2ZM2462.5 1819l2.5.5-2.5.5v-1ZM2813.5 1819l.5 9.5h-1l.5-9.5ZM2727.5 1820l.5 3.5h-1l.5-3.5ZM421.5 1821l-3 4 3-4ZM1847.5 1821l1 2-1-2ZM2088.5 1821l-15 16 15-16ZM2469.5 1821l8 9-8-9ZM435.5 1822l9 10-9-10ZM1508.5 1823l1 2-1-2ZM1603.5 1823l1 2-1-2ZM1850.5 1825l2 3-2-3ZM691.5 1827l.5 4.5h-1l.5-4.5ZM415.5 1830l-1 2 1-2ZM777.5 1831l.5 4.5h-1l.5-4.5ZM1513.5 1831l1 2-1-2ZM1855.5 1831l16 17-16-17ZM2726.5 1831l.5 2.5h-1l.5-2.5ZM2481.5 1832l2 3-2-3ZM448.5 1834l2 3-2-3ZM1515.5 1834l1 2-1-2ZM1610.5 1834l1 2-1-2ZM2812.5 1835l.5 3.5h-1l.5-3.5ZM2486.5 1836l2 3-2-3ZM452.5 1837l2 3-2-3ZM2490.5 1839l1 2-1-2ZM456.5 1840l1 2-1-2ZM776.5 1840l.5 2.5h-1l.5-2.5ZM2068.5 1840l-3 4 3-4ZM1520.5 1842l1 2-1-2ZM1615.5 1842l1 2-1-2ZM2811.5 1842l.5 2.5h-1l.5-2.5ZM2443.5 1843l-1 2 1-2ZM1522.5 1845l1 2-1-2ZM1617.5 1845l1 2-1-2ZM2062.5 1845l-2 3 2-3ZM465.5 1846l1 2-1-2ZM1768.5 1846l1 2-1-2ZM2502.5 1847l1 2-1-2ZM1770.5 1849l1 2-1-2ZM1874.5 1849l2 3-2-3ZM2057.5 1849l-1 2 1-2ZM2507.5 1850l1 2-1-2ZM2720.5 1850l-1 2 1-2ZM684.5 1851l-1 2 1-2ZM1772.5 1852l1 2-1-2ZM2053.5 1852l-1 2 1-2ZM402.5 1853l-1 2 1-2ZM1527.5 1853l1 2-1-2ZM1622.5 1853l1 2-1-2ZM1879.5 1853l1 2-1-2ZM2718.5 1853l-1 2 1-2ZM479.5 1854l1 2-1-2ZM682.5 1854l-2 3 2-3ZM2050.5 1854l-1 2 1-2ZM1774.5 1855l1 2-1-2ZM1529.5 1856l1 2-1-2ZM1883.5 1856l1 2-1-2ZM2047.5 1856l-1 2 1-2ZM2715.5 1857l-5 6 5-6ZM1886.5 1858l1 2-1-2ZM1627.5 1861l1 2-1-2ZM1779.5 1862l1 2-1-2ZM673.5 1863l-1 2 1-2ZM1534.5 1864l1 2-1-2ZM1629.5 1864l1 2-1-2ZM2707.5 1864l-1 2 1-2ZM1782.5 1866l2 3-2-3ZM2430.5 1866l-1 2 1-2ZM1786.5 1871l2 3-2-3ZM1634.5 1872l1 2-1-2ZM2426.5 1873l-1 2 1-2ZM1541.5 1875l1 2-1-2ZM1790.5 1876l4 5-4-5ZM540.5 1877l2.5.5-2.5.5v-1ZM549.5 1879l2.5.5-2.5.5v-1ZM636.5 1879l2.5.5-2.5.5v-1ZM942.5 1879l254.5.5-254.5.5v-1ZM1992.5 1879l2.5.5-2.5.5v-1ZM2423.5 1879l.5 5.5h-1l.5-5.5ZM555.5 1880l2.5.5-2.5.5v-1ZM631.5 1880l2.5.5-2.5.5v-1ZM1940.5 1880l2.5.5-2.5.5v-1ZM1986.5 1880l2.5.5-2.5.5v-1ZM2590.5 1880l2.5.5-2.5.5v-1ZM561.5 1881l2.5.5-2.5.5v-1ZM625.5 1881l2.5.5-2.5.5v-1ZM1947.5 1881l4.5.5-4.5.5v-1ZM1978.5 1881l4.5.5-4.5.5v-1ZM2596.5 1881l3.5.5-3.5.5v-1ZM2660.5 1881l3.5.5-3.5.5v-1ZM569.5 1882l4.5.5-4.5.5v-1ZM617.5 1882l3.5.5-3.5.5v-1ZM1959.5 1882l11.5.5-11.5.5v-1ZM2604.5 1882l4.5.5-4.5.5v-1ZM2652.5 1882l4.5.5-4.5.5v-1ZM580.5 1883l29.5.5-29.5.5v-1ZM1641.5 1883l1 2-1-2ZM2615.5 1883l29.5.5-29.5.5v-1ZM1797.5 1884l14 15-14-15ZM2796.5 1885l-1 2 1-2ZM760.5 1886l-1 2 1-2ZM1548.5 1886l1 2-1-2ZM389.5 1887l1 2-1-2ZM2425.5 1888l3 4-3-4ZM1206.5 1889l.5 56.5h-1l.5-56.5ZM392.5 1890l2 3-2-3ZM1646.5 1891l1 2-1-2ZM2431.5 1893l2 3-2-3ZM397.5 1894l2 3-2-3ZM754.5 1895l-1 2 1-2ZM2435.5 1896l2 3-2-3ZM1555.5 1897l1 2-1-2ZM2788.5 1897l-1 2 1-2ZM402.5 1898l1 2-1-2ZM752.5 1898l-2 3 2-3ZM2439.5 1899l1 2-1-2ZM405.5 1900l1 2-1-2ZM1815.5 1901l4 5-4-5ZM2785.5 1901l-3 4 3-4ZM1653.5 1902l1 2-1-2ZM2443.5 1902l1 2-1-2ZM409.5 1903l1 2-1-2ZM748.5 1903l-5 6 5-6ZM412.5 1905l1 2-1-2ZM415.5 1907l1 2-1-2ZM1822.5 1907l2 3-2-3ZM1562.5 1908l1 2-1-2ZM2779.5 1908l-6 7 6-7ZM418.5 1909l1 2-1-2ZM2090.5 1909l-3 4 3-4ZM1658.5 1910l1 2-1-2ZM421.5 1911l1 2-1-2ZM1827.5 1911l2 3-2-3ZM2458.5 1912l1 2-1-2ZM1660.5 1913l1 2-1-2ZM426.5 1914l1 2-1-2ZM737.5 1914l-5 6 5-6ZM2084.5 1914l-1 2 1-2ZM1832.5 1915l1 2-1-2ZM2463.5 1915l1 2-1-2ZM1567.5 1916l1 2-1-2ZM431.5 1917l1 2-1-2ZM1835.5 1917l1 2-1-2ZM2080.5 1917l-1 2 1-2ZM2468.5 1918l1 2-1-2ZM2768.5 1918l-3 4 3-4ZM1569.5 1919l1 2-1-2ZM2076.5 1920l-1 2 1-2ZM729.5 1921l-2 3 2-3ZM1665.5 1921l1 2-1-2ZM2763.5 1922l-2 3 2-3ZM1847.5 1925l1 2-1-2ZM2481.5 1925l1 2-1-2ZM2759.5 1925l-1 2 1-2ZM721.5 1927l-1 2 1-2ZM1574.5 1927l1 2-1-2ZM2064.5 1928l-1 2 1-2ZM718.5 1929l-1 2 1-2ZM1670.5 1929l1 2-1-2ZM1576.5 1930l1 2-1-2ZM1857.5 1931l1 2-1-2ZM2750.5 1931l-1 2 1-2ZM713.5 1932l-1 2 1-2ZM1672.5 1932l1 2-1-2ZM2052.5 1935l-1 2 1-2ZM1581.5 1938l1 2-1-2ZM1583.5 1941l1 2-1-2ZM1205.5 1948l.5 1.5-2 1 1.5-2.5ZM1588.5 1949l1 2-1-2ZM861.5 1950l3 4-3-4ZM1676.5 1950l-3 4 3-4ZM2166.5 1950l-3 4 3-4ZM1293.5 1951l2 3-2-3ZM2097.5 1951l2 3-2-3ZM2264.5 1951l1 2-1-2ZM2342.5 1951l-1 2 1-2ZM2897.5 1951l2 3-2-3ZM520.5 1952l2.5.5-2.5.5v-1ZM2697.5 1952l2.5.5-2.5.5v-1ZM1201.5 1953l-1 2-1.5-.5 2.5-1.5ZM1368.5 1953l-1 2-1.5-.5 2.5-1.5ZM1592.5 1953l2.5 1.5-1.5.5-1-2ZM2560.5 1953l2.5.5-2.5.5v-1ZM2972.5 1953l-1 2 1-2ZM530.5 1954l2.5.5-2.5.5v-1ZM1916.5 1954l2.5.5-2.5.5v-1ZM2000.5 1954l2.5.5-2.5.5v-1ZM2565.5 1954l2.5.5-2.5.5v-1ZM2688.5 1954l2.5.5-2.5.5v-1ZM536.5 1955l2.5.5-2.5.5v-1ZM647.5 1955l2.5.5-2.5.5v-1ZM869.5 1955l327.5.5-327.5.5v-1ZM1300.5 1955l63.5.5-63.5.5v-1ZM1597.5 1955l71.5.5-71.5.5v-1ZM1921.5 1955l2.5.5-2.5.5v-1ZM1995.5 1955l2.5.5-2.5.5v-1ZM2104.5 1955l54.5.5-54.5.5v-1ZM2271.5 1955l64.5.5-64.5.5v-1ZM2571.5 1955l2.5.5-2.5.5v-1ZM2904.5 1955l63.5.5-63.5.5v-1ZM542.5 1956l2.5.5-2.5.5v-1ZM641.5 1956l2.5.5-2.5.5v-1ZM1927.5 1956l3.5.5-3.5.5v-1ZM1989.5 1956l2.5.5-2.5.5v-1ZM2577.5 1956l3.5.5-3.5.5v-1ZM2676.5 1956l2.5.5-2.5.5v-1ZM549.5 1957l3.5.5-3.5.5v-1ZM634.5 1957l2.5.5-2.5.5v-1ZM1935.5 1957l3.5.5-3.5.5v-1ZM1981.5 1957l3.5.5-3.5.5v-1ZM2584.5 1957l3.5.5-3.5.5v-1ZM2669.5 1957l3.5.5-3.5.5v-1ZM557.5 1958l5.5.5-5.5.5v-1ZM624.5 1958l4.5.5-4.5.5v-1ZM1945.5 1958l29.5.5-29.5.5v-1ZM2593.5 1958l4.5.5-4.5.5v-1ZM2659.5 1958l5.5.5-5.5.5v-1ZM569.5 1959l8.5.5-8.5.5v-1ZM609.5 1959l8.5.5-8.5.5v-1ZM2604.5 1959l8.5.5-8.5.5v-1ZM2645.5 1959l7.5.5-7.5.5v-1Z"/><path fill="#010000" stroke="#010000" d="M2321.5 1436h53l.5 1.5-69.5 104.5-70.5-104.5 85.5-.5 1-1ZM2954.5 1436l54.5.5-69 104.5-3-1.5-69-102 85.5-.5 1-1Z"/><path stroke="#000" d="M441.5 417h70q6.1 1.4 8.5 6.5L654.5 655l8.5-12.5 121-208 10.5-15.5 4-2h70l6.5 3 2 3.5v9l-181 301v174q-1.2 5.8-5.5 8.5l-2 1h-68l-5.5-4.5-1-2v-176l-180-300-2-8 4.5-7.5 5-2ZM1047.5 417h55q6.1 1.4 8.5 6.5l194 475 2 10-5.5 7.5-2 1h-71l-5.5-3.5-55-136.5H981.5l-.5 1.5-53 133-4.5 4.5-2 1h-71l-5.5-3.5q-3.6-2.9-2-11l195-476 6.5-8.5 3-1Zm27.5 111-73 180h143l-62-161-8-19ZM1381.5 417h215l1 1 17 1q24.5 4.5 43 15 23.9 13.1 41.5 32.5 22.2 23.8 35 57l6 19 3 16q-1.8 6.3 1 8v30l-1 1v8l-1 1-1 11-10 32q-14.9 34.1-41.5 56.5-16.9 14.6-39.5 23.5l106 167 3 5 1 7-5.5 7.5-2 1h-75l-6.5-4.5L1564.5 745H1455v164.5l-3.5 5.5-4 2h-67l-6.5-5.5-1-3v-483l4.5-6.5 4-2Zm75.5 75-2 2v176h143l18-5 13-8q15-12 23-30l7-20 2-11v-9l1-1-1-19-4-16q-7-19-19-33-15-19-42-25h-9l-1-1h-129ZM1848.5 417h64l6.5 3 2 3.5v487l-4.5 5.5-2 1h-68l-5.5-4.5-1-2v-487l2-3.5 6.5-3ZM2047.5 417h67l7.5 4.5L2286.5 716 2438 444.5l15.5-25.5 5-2h67l7.5 5.5 1 2v485l-3.5 5.5-4 2h-67l-6.5-5.5-1-3-.5-329.5-141 250-4 2h-39q-6.1-1.4-8.5-6.5l-134-238-3-7.5-2 .5v331l-3.5 4.5-4 2h-67l-6.5-5.5-1-3v-482l4.5-7.5 5-2ZM787.5 936h64q6.1 1.4 8.5 6.5v240l1.5.5 229-246 2-1h73l5.5 4.5q2.3 3.2 1 10l-188 208 197 259q3.2 3.3 2 11l-4.5 5.5-2 1h-74l-5.5-4.5L931.5 1209l-71.5 74.5v145l-4.5 5.5-2 1h-69l-5.5-5.5-1-4v-479l1-4 3.5-4.5 5-2ZM1393.5 936h59l6.5 5.5 192 470 4 10v6l-4.5 6.5-2 1h-73l-4.5-3.5-55-136.5h-186.5l-.5 2.5-51 128-5.5 8.5-2 1h-73l-5.5-4.5-1-9 190-464 8-18 2.5-2.5 2-1Zm28.5 111-70 175-1 5h143l-70-178q1-3-2-2ZM1727.5 936h69l5.5 4.5 1 2V1360h258.5l7.5 5.5 1 2v61l-4.5 5.5-2 1h-336q-5.1-2.4-6.5-8.5v-482q1.4-6.1 6.5-8.5ZM2145.5 936h72l4.5 3.5 164.5 294.5L2549 943.5l5.5-6.5 2-1h71l5.5 4.5 1 2v486l-4.5 5.5-2 1h-69q-5.1-2.4-6.5-8.5l-.5-329.5-136.5 244.5-5.5 6.5-2 1h-41l-5.5-3.5-136-241-3-7.5-2 .5v331l-4.5 5.5-2 1h-68l-6.5-5.5v-488l4.5-4.5 2-1ZM2903.5 936h59l5.5 4.5 189 462 6 15 2 9q-1.4 6.1-6.5 8.5h-73l-5.5-4.5-52-130-3.5-5.5h-185l-.5 1.5-53 133-5.5 5.5h-73l-5.5-4.5q-2.3-3.2-1-10l195-476 5.5-7.5 2-1Zm29.5 110-73 180 1 1h142l-3-10-67-171ZM3239.5 936h65l7.5 5.5 1 3 .5 238.5 231-247h74l4.5 3.5q3 3 2 10l-5 7-184 201 196 258 4 7v4l-3 6.5-3.5 2h-75l-6.5-6.5-163-219.5q-2.7-1.1-2 1.5l-70 72v145l-4.5 6.5-2 1h-69l-4.5-3.5-2-4v-484l5.5-6.5 3-1ZM571.5 1452h36l1 1h11l1 1 20 2 25 6q54 16.5 90.5 50.5l1 6-32.5 56.5q-3 3-10 2-11.9-12.6-27-22l-33-16-19-6-19-4-17-1-1-1h-24l-1 1h-11l-1 1-12 1-18 5q-17.1 5.9-27.5 18.5-14.3 15.2-14 45l1 1v8l3 10 10.5 14.5q18.8 14.7 45 22l50 13h4l41 10 43 14q22.6 8.9 41 22l23.5 21.5q15 17 22 42l3 15v8l1 1v30l-1 1v8l-3 15-8 22q-10.8 21.7-27.5 37.5-26 24.5-65 36l-40 8-24 1-1 1h-30l-1-1-24-1-1-1h-7l-1-1-17-2-25-6-27-9q-48.1-19.1-84.5-49l-3-6.5v-4l30-54 4.5-4.5 9-1q31.7 32.3 79 49l26 8 25 5 18 1 1 1h29l1-1h10l1-1 12-1 21-6q17.8-6.7 28.5-20.5 11.3-14.2 9-42-4.2-21.7-19.5-32.5l-12-8-27-12-48-14-54-13-42-14q-19.8-7.7-36-19l-24.5-22.5q-12-14.5-18-35l-4-20-1-24 1-1v-13l1-1 2-17 8-24q13.7-29.8 37.5-49.5 21.9-18.6 52-29l31-8h5l7-2h8l1-1h11l1-1ZM1944.5 1452h35l1 1 19 1 1 1 17 2 31 9q46.3 19.2 76.5 54.5l18 24 10 18 1 6-4.5 7.5-46 32q-3 3-10 2l-6.5-5.5q-12.3-25.7-32.5-43.5-19.1-16.9-46-26l-26-6h-8l-1-1h-28l-22 4q-16 4.5-29 12-24.7 14.3-42.5 35.5-23.3 28.2-35 68l-4 16-2 19-1 1-1 30 1 1v12l1 1v7l3 16 11 33q16.8 38.7 46.5 64.5 19.6 16.9 46 27l23 6 30 2 1-1h11l20-4q18.8-5.2 34-14 30.1-17.4 52.5-42.5l6-7V1762h-96.5l-3.5-2-3-6.5v-50l4.5-6.5 4-2h159l7.5 5.5 1 3v243l-5.5 7.5-2 1h-58l-6.5-5.5-1-3-.5-40.5q-29.6 27.9-72 43l-18 5-16 3h-7l-1 1h-41l-37-7q-23.6-6.9-43-18-37.3-20.7-64.5-51.5-33.8-37.2-53-89l-7-22-6-29-1-17-1-1v-41l1-1v-9l1-1v-7l3-17 6-23 10-27q24.1-54.9 66.5-91.5 25.7-22.3 59-37l37-12 23-4h10l1-1ZM2606.5 1452h36l1 1 20 1 41 9q49.9 16.6 85.5 47.5 2.8 2.7 2 9l-28 50-5.5 6.5-9 1-22-19-35-18-18-6-23-5-17-1-1-1h-24l-1 1h-11l-1 1-12 1-18 5q-14.5 5.5-24.5 15.5-9.6 9.4-14 24l-2 10v21q3.6 19.9 17.5 29.5 15.5 10.5 35 17l48 13h4l13 4 29 6 45 14q21.2 7.8 39 19l25.5 20.5q14.4 14.6 23 35l7 26 2 29-1 1v15l-1 1-1 12-7 23q-12.4 28.6-34.5 47.5l-26 18-20 9-22 7-19 4h-6l-8 2h-9l-1 1-45 1-1-1h-14l-1-1h-9l-1-1-19-2-27-6-28-9q-51.2-19.3-88.5-52.5-2.3-3.2-1-10l27-48 6.5-8.5 9-1q33 33 82 50l16 5 32 7 18 1 1 1h29l1-1 18-1 21-5q19.2-6.3 31.5-19.5l9-16 2-8 1-13-1-1-1-13-5-12-14.5-15.5q-21.6-14.9-50-23l-86-22-48-16q-34.1-13.4-56.5-38.5-13.6-15.4-20-38l-4-22v-31l1-1v-8l2-11 8-25q13.1-28.9 35.5-48.5 20.6-18.4 49-29l31-9 17-2 1-1h7l1-1h11l1-1ZM868.5 1455h323l7.5 5.5 1 2v61l-4.5 5.5-6 2H942v133h215.5q6.1 1.4 8.5 6.5v59l-4.5 5.5-3 1H942v144h256.5l5.5 3.5 2 4v60l-3.5 5.5-4 2h-331l-6.5-5.5-1-2v-485l5.5-6.5 3-1ZM1300.5 1455h214l1 1 17 1 26 7 19 9q23.8 13.7 41.5 33.5 23.5 26 36 63l7 33v34l-7 35-11 27q-14.6 27.4-37.5 46.5-16.4 14.1-38.5 22.5l108 170q3 3 2 10l-5.5 6.5-2 1h-75l-5.5-3.5-107.5-168.5h-108l-1.5 1.5v164l-3.5 4.5-4 2h-67l-6.5-5.5-1-3v-482l4.5-7.5 5-2Zm72.5 76v177h143l18-5 13-8q16-12 24-32l7-22 1-13 1-1v-14l-1-1v-8l-2-9q-7-23-20-38-15-20-43-26h-141ZM2263 1553h80.5l.5.5v395l-4.5 5.5-2 1h-68l-5.5-4.5-1-2V1553ZM2895 1553h81.5l.5.5v395l-3.5 4.5-3 2h-68l-6.5-5.5-1-3V1553Z"/></svg>