<svg xmlns="http://www.w3.org/2000/svg" width="887" height="1158" style="shape-rendering:geometricPrecision;text-rendering:geometricPrecision;image-rendering:optimizeQuality;fill-rule:evenodd;clip-rule:evenodd"><path style="opacity:1" fill="#f6f6f6" d="M-.5-.5h887v1158H-.5V-.5z"/><path style="opacity:1" fill="#be1641" d="M406.5 54.5c.111.617.444 1.117 1 1.5 4.371.172 8.704.672 13 1.5a4.458 4.458 0 0 0 1.5 2 38.513 38.513 0 0 1 8.5-1 113.231 113.231 0 0 0 24 2c10.357.92 20.691 1.92 31 3a627.874 627.874 0 0 0 54 7 2367.297 2367.297 0 0 0 68 9 561.886 561.886 0 0 0 29 4 4660.565 4660.565 0 0 0 72 9 190.938 190.938 0 0 0 22 3 15734.754 15734.754 0 0 0 124 16v1005a88.091 88.091 0 0 0-18-4c-93.722-26.8-187.389-53.8-281-81-2.598-2.17-5.598-3.67-9-4.5a75.766 75.766 0 0 0-16-3.5c-110.994-32-221.994-64-333-96-.25-1.422-1.083-2.422-2.5-3a9935.74 9935.74 0 0 1-.5-141h30c-.661 39.681.006 79.014 2 118a104151.662 104151.662 0 0 0 598 170c1-310.5 1.333-621.166 1-932a76.926 76.926 0 0 0-10-1 10773.945 10773.945 0 0 0-118-15c-1.648-1.427-3.648-2.26-6-2.5a317.464 317.464 0 0 0-20-1.5c-7.896-.265-15.563-1.265-23-3-.418-.722-1.084-1.222-2-1.5-5.179-.054-10.179-.721-15-2a128.507 128.507 0 0 0-16-.5 7414.337 7414.337 0 0 1-180-23 70.915 70.915 0 0 0-4-2 20.211 20.211 0 0 1 6-1.5 10.255 10.255 0 0 0-4-1.5c-11.422 2.772-22.755 2.439-34-1a20.211 20.211 0 0 1 6-1.5c-8.988.04-17.988.207-27 .5a5146.156 5146.156 0 0 1-79-10c-9.058-2.342-18.391-3.675-28-4-13.752-2.58-27.752-4.247-42-5-1.993 34.65-2.66 69.651-2 105h-37v-33c.298-36.334.631-72.667 1-109a23560.733 23560.733 0 0 1 215 28z"/><path style="opacity:1" fill="#b73352" d="M406.5 54.5a486.061 486.061 0 0 1 48 6 113.231 113.231 0 0 1-24-2 38.513 38.513 0 0 0-8.5 1 4.458 4.458 0 0 1-1.5-2 86.708 86.708 0 0 0-13-1.5c-.556-.383-.889-.883-1-1.5z"/><path style="opacity:1" fill="#b3415b" d="M229.5 63.5c14.248.753 28.248 2.42 42 5-14.246-.753-28.246-2.42-42-5z"/><path style="opacity:1" fill="#fbdce6" d="M485.5 63.5c7 .423 14 .923 21 1.5a482.99 482.99 0 0 0 33 5.5 627.874 627.874 0 0 1-54-7z"/><path style="opacity:1" fill="#ba4861" d="M271.5 68.5c9.609.325 18.942 1.658 28 4a491.733 491.733 0 0 1-22-2l-6-2z"/><path style="opacity:1" fill="#fde3eb" d="M229.5 63.5c13.754 2.58 27.754 4.247 42 5l6 2a64.463 64.463 0 0 0-19.5 2c-2.051.077-3.884-.423-5.5-1.5 2.871-.118 5.538-.784 8-2a43.094 43.094 0 0 0-18 1.5l-4-.5a32.455 32.455 0 0 1 6-2.5 109.043 109.043 0 0 0-16-2c.167 34.668 0 69.335-.5 104-12.105.657-24.271 1.324-36.5 2a514.75 514.75 0 0 0 32 1.5 182.078 182.078 0 0 1-33-.5c-1.322-12.461-1.322-24.794 0-37v33h37c-.66-35.349.007-70.35 2-105z"/><path style="opacity:1" fill="#fad3df" d="M607.5 79.5c8 .433 16 .933 24 1.5a39.459 39.459 0 0 0 5 2.5 561.886 561.886 0 0 1-29-4z"/><path style="opacity:1" fill="#b82e4e" d="M435.5 89.5a726.182 726.182 0 0 1-57-7c9.012-.293 18.012-.46 27-.5a20.211 20.211 0 0 0-6 1.5c11.245 3.439 22.578 3.772 34 1 1.438.219 2.771.719 4 1.5a20.211 20.211 0 0 0-6 1.5 70.915 70.915 0 0 1 4 2z"/><path style="opacity:1" fill="#f0ced9" d="M708.5 92.5c5.518.001 11.018.335 16.5 1 2.295.046 4.129.713 5.5 2a190.938 190.938 0 0 1-22-3z"/><path style="opacity:1" fill="#b41943" d="M854.5 111.5h1c.666 335.668-.001 671.002-2 1006a106.281 106.281 0 0 1-17-5 88.091 88.091 0 0 1 18 4v-1005z"/><path style="opacity:1" fill="#b23a56" d="M615.5 112.5c5.344-.166 10.677.001 16 .5 4.821 1.279 9.821 1.946 15 2 .916.278 1.582.778 2 1.5-11.242-.47-22.242-1.803-33-4z"/><path style="opacity:1" fill="#ffe3f2" d="M856.5 111.5h1v1008c-1.291.24-2.291-.1-3-1 1.999-335.332 2.666-670.998 2-1007z"/><path style="opacity:1" fill="#f0f9f6" d="M857.5 111.5c4.408-1.127 5.408-1.127 3 0v992a4.949 4.949 0 0 1 3 .5c-1.612.72-3.112.55-4.5-.5-.167-330.834-.667-661.5-1.5-992z"/><path style="opacity:1" fill="#982546" d="M855.5 111.5h1c.666 336.002-.001 671.668-2 1007-.667 0-1-.33-1-1 1.999-334.998 2.666-670.332 2-1006z"/><path style="opacity:1" fill="#b9415e" d="M671.5 119.5c6.678.289 13.344.789 20 1.5 2.352.24 4.352 1.073 6 2.5a412.134 412.134 0 0 1-26-4z"/><path style="opacity:1" d="M44.5 232.5h20v19h-20v-19z"/><path style="opacity:1" fill="#3c3c3c" d="M44.5 232.5v19h20c-6.813.991-13.813 1.325-21 1-.324-6.854.01-13.521 1-20z"/><path style="opacity:1" fill="#030303" d="M104.5 263.5c14.868-1.596 28.534 1.571 41 9.5 7.336 6.506 11.002 14.672 11 24.5h-21c-2.256-11.726-9.423-16.726-21.5-15-7.244-1.149-12.91 1.184-17 7-2.166 7.499.334 12.666 7.5 15.5a564.485 564.485 0 0 1 39 11c14.175 6.856 19.342 18.023 15.5 33.5-1.795 9.797-7.295 16.63-16.5 20.5-18.794 6.695-37.128 5.695-55-3-9.496-6.621-14.162-15.787-14-27.5h21c.94 9.111 5.941 14.611 15 16.5 8.89 1.598 17.223.265 25-4 5.619-6.693 5.286-13.026-1-19a2411.57 2411.57 0 0 0-39-11c-15.634-6.326-21.8-17.826-18.5-34.5 4.546-14.006 14.046-22.006 28.5-24z"/><path style="opacity:1" d="M42.5 266.5h22v105h-22v-105zM160.5 266.5h86v18h-32v87h-22v-87h-32v-18z"/><path style="opacity:1" fill="#020202" d="M262.5 266.5c8.692-.331 17.359.002 26 1a13511.486 13511.486 0 0 0 37 103 96.54 96.54 0 0 1-24 .5l-7-21a254.022 254.022 0 0 0-39 .5l-7 20a96.54 96.54 0 0 1-24 .5 19554.132 19554.132 0 0 0 38-104.5zM334.5 266.5c7.674-.166 15.341 0 23 .5l41.5 65.5c.5-21.997.667-43.997.5-66h21v105c-7.255.313-14.421-.02-21.5-1l-44-68a2379.52 2379.52 0 0 0-.5 69h-20v-105z"/><path style="opacity:1" fill="#010101" d="M431.5 266.5c19.669-.167 39.336 0 59 .5 18.857 3.857 26.69 15.357 23.5 34.5-2.097 6.057-5.93 10.557-11.5 13.5 10.807 4.815 15.807 13.149 15 25-.767 19.102-10.767 29.435-30 31-18.664.5-37.33.667-56 .5v-105zM526.5 266.5h22a1062.92 1062.92 0 0 0 1.5 78c4.704 10.102 12.538 13.935 23.5 11.5 8.194-1.527 13.027-6.361 14.5-14.5.5-24.998.667-49.998.5-75h22c.167 27.002 0 54.002-.5 81-3.907 13.573-12.741 22.073-26.5 25.5-14.984 3.286-29.317 1.619-43-5-6.844-4.849-11.344-11.349-13.5-19.5a3360.51 3360.51 0 0 1-.5-82z"/><path style="opacity:1" d="M623.5 266.5h22v86h52v19h-74v-105z"/><path style="opacity:1" fill="#f2f2f2" d="M452.5 284.5a224.17 224.17 0 0 1 35 1.5c4.302 1.935 6.302 5.268 6 10-.04 6.044-3.04 9.71-9 11-10.661.5-21.328.667-32 .5v-23z"/><path style="opacity:1" fill="#f0f0f0" d="M274.5 290.5a960.796 960.796 0 0 1 14 40.5c-9 .667-18 .667-27 0a951.985 951.985 0 0 0 13-40.5z"/><path style="opacity:1" fill="#f5f5f5" d="M452.5 325.5c11.338-.167 22.672 0 34 .5 10.663 4.877 12.83 12.377 6.5 22.5a28.415 28.415 0 0 1-7.5 4.5c-10.995.5-21.995.667-33 .5v-28z"/><path style="opacity:1" fill="#030303" d="M69.5 391.5c15.21-1.727 29.21 1.439 42 9.5 7.045 6.631 10.712 14.797 11 24.5h-21c-2.247-11.715-9.414-16.715-21.5-15-7.244-1.149-12.91 1.184-17 7-2.166 7.499.334 12.666 7.5 15.5a563.222 563.222 0 0 1 39 11c14.162 6.832 19.329 17.999 15.5 33.5-1.795 9.797-7.295 16.63-16.5 20.5-17.48 6.206-34.813 5.873-52-1-10.956-6.742-16.623-16.575-17-29.5h21c.94 9.111 5.94 14.611 15 16.5 9.12 1.665 17.62.165 25.5-4.5 5.55-7.787 4.384-14.287-3.5-19.5a219.105 219.105 0 0 0-28-7c-26.6-7.366-34.1-23.533-22.5-48.5 6.15-6.821 13.65-11.154 22.5-13zM164.5 394.5c8.692-.331 17.359.002 26 1a9516.676 9516.676 0 0 0 37 103 96.54 96.54 0 0 1-24 .5l-7-21a254.022 254.022 0 0 0-39 .5l-7 20a96.54 96.54 0 0 1-24 .5 19554.132 19554.132 0 0 0 38-104.5z"/><path style="opacity:1" fill="#020202" d="M236.5 394.5c7.674-.166 15.341 0 23 .5l41.5 65.5c.5-21.997.667-43.997.5-66h21v105c-7.255.313-14.421-.02-21.5-1l-44-68a2379.52 2379.52 0 0 0-.5 69h-20v-105z"/><path style="opacity:1" fill="#030303" d="M368.5 394.5c8.918-.317 17.751.016 26.5 1A4752.88 4752.88 0 0 0 431.5 499c-8 .667-16 .667-24 0l-7-21a254.022 254.022 0 0 0-39 .5l-7 20a96.54 96.54 0 0 1-24 .5 19641.71 19641.71 0 0 0 38-104.5z"/><path style="opacity:1" d="M409.5 394.5h86v18h-32v87h-22v-87h-32v-18z"/><path style="opacity:1" fill="#f0f0f0" d="M380.5 418.5a960.796 960.796 0 0 1 14 40.5c-9 .667-18 .667-27 0a951.985 951.985 0 0 0 13-40.5z"/><path style="opacity:1" fill="#efefef" d="M176.5 418.5a960.796 960.796 0 0 1 14 40.5c-9.018.832-18.018.665-27-.5a698.386 698.386 0 0 0 13-40z"/><path style="opacity:1" fill="#c60f41" d="M829.5 142.5c-1 308.833-1.333 617.833-1 927 .131.88-.202 1.54-1 2l-2-932c.448-1.965 1.448-2.298 3-1 1.676 1.228 2.009 2.561 1 4z"/><path style="opacity:1" fill="#b81640" d="M829.5 142.5a2.428 2.428 0 0 1 2 .5c-.333 309.099-1.333 617.932-3 926.5-.333-309.167 0-618.167 1-927z"/><path style="opacity:1" fill="#f4d2d9" d="M815.5 138.5c3.36.116 6.693.449 10 1 .333 310.834 0 621.5-1 932-.808-310.333-1.142-620.666-1-931-2.995.206-5.662-.46-8-2z"/><path style="opacity:1" d="M525.5 488.5h20v19h-20v-19z"/><path style="opacity:1" fill="#3c3c3c" d="M525.5 488.5v19h20c-6.813.991-13.813 1.325-21 1-.324-6.854.009-13.521 1-20z"/><path style="opacity:1" fill="#030303" d="M138.5 552.5c-6.924 1.963-14.257 2.63-22 2-2.049-7.884-7.049-13.051-15-15.5-16.958-3.771-28.79 2.396-35.5 18.5-5.62 18.002-2.453 34.169 9.5 48.5 9.379 6.196 19.379 7.196 30 3 8.242-4.398 12.575-11.232 13-20.5h-23v-17h43v55c-1.599-.268-2.932.066-4 1h-14a50.464 50.464 0 0 0-.5-10c-3.266 4.255-7.432 7.422-12.5 9.5-34.951 8.769-56.785-4.398-65.5-39.5-4.407-22.436 1.427-41.603 17.5-57.5 12.892-9.135 27.226-12.468 43-10 17.026 2.582 28.859 11.749 35.5 27.5a12.93 12.93 0 0 1 .5 5zM184.5 522.5c8.918-.317 17.751.016 26.5 1A4752.88 4752.88 0 0 0 247.5 627c-8 .667-16 .667-24 0l-7-21a254.022 254.022 0 0 0-39 .5l-7 20a96.54 96.54 0 0 1-24 .5 19641.71 19641.71 0 0 0 38-104.5z"/><path style="opacity:1" d="M256.5 522.5h22v86h52v19h-74v-105zM360.5 562.5a650.602 650.602 0 0 0 51 1v18h-51v27a841.82 841.82 0 0 0 58 1v18h-79v-105h77v18h-56v22z"/><path style="opacity:1" fill="#010101" d="M427.5 522.5c20.336-.167 40.669 0 61 .5 17.634 4.765 25.801 16.265 24.5 34.5-1.396 9.062-6.23 15.562-14.5 19.5 4.808 2.141 8.308 5.641 10.5 10.5.5 13.329.667 26.663.5 40h-21c.167-11.005 0-22.005-.5-33-1.27-4.27-4.104-6.77-8.5-7.5a481.165 481.165 0 0 0-31-.5v41h-21v-105z"/><path style="opacity:1" d="M523.5 522.5h22v105h-22v-105z"/><path style="opacity:1" fill="#f3f3f3" d="M448.5 540.5c11.005-.167 22.005 0 33 .5 11.228 4.153 14.061 11.653 8.5 22.5a36.078 36.078 0 0 1-4.5 3.5 248.83 248.83 0 0 1-37 1.5v-28z"/><path style="opacity:1" fill="#f0f0f0" d="M196.5 546.5a960.796 960.796 0 0 1 14 40.5c-9 .667-18 .667-27 0a951.985 951.985 0 0 0 13-40.5z"/><path style="opacity:1" fill="#434343" d="M138.5 552.5c.904.709 1.237 1.709 1 3-7.852.325-15.518-.008-23-1 7.743.63 15.076-.037 22-2z"/><path style="opacity:1" fill="#575757" d="M360.5 562.5h52c.323 6.522-.01 12.855-1 19v-18a650.602 650.602 0 0 1-51-1z"/><path style="opacity:1" fill="#7c7c7c" d="M139.5 571.5h-44v17c-.99-5.81-1.323-11.81-1-18a507.055 507.055 0 0 1 45 1z"/><path style="opacity:1" fill="#414141" d="M138.5 571.5h1v56h-5c1.068-.934 2.401-1.268 4-1v-55z"/><path style="opacity:1" fill="#3c3c3c" d="M360.5 608.5h59c.323 6.522-.01 12.855-1 19v-18a841.82 841.82 0 0 1-58-1z"/><path style="opacity:1" fill="#060606" d="M48.5 658.5h27v6h-21v14h18v6h-18v19h-6v-45z"/><path style="opacity:1" fill="#0a0a0a" d="M168.5 658.5c11.108-1.959 18.108 2.374 21 13a9.86 9.86 0 0 1-6-1c-5.473-7.582-11.306-7.915-17.5-1-.667 7-.667 14 0 21 1.756 6.464 5.923 8.63 12.5 6.5a38.929 38.929 0 0 0 5-5.5c2-1.333 4-1.333 6 0-4.129 11.063-11.796 14.563-23 10.5-3.335-2.341-5.502-5.507-6.5-9.5a156.422 156.422 0 0 1 0-25 18.924 18.924 0 0 0 3-5 35.524 35.524 0 0 0 5.5-4z"/><path style="opacity:1" fill="#aaa" d="M273.5 662.5h-6c.31 3.213-.023 6.213-1 9v-10c2.559-.302 4.893.032 7 1z"/><path style="opacity:1" fill="#050505" d="M273.5 662.5v9h5v5h-5v21h5v6c-5.703 1.322-9.369-.678-11-6v-21h-3v-5h2c.977-2.787 1.31-5.787 1-9h6z"/><path style="opacity:1" fill="#aaa" d="M641.5 662.5h-6c.31 3.213-.023 6.213-1 9v-10c2.559-.302 4.893.032 7 1z"/><path style="opacity:1" fill="#050505" d="M641.5 662.5v9h5v5h-5v21h5v6c-5.703 1.322-9.369-.678-11-6v-21h-3v-5h2c.977-2.787 1.31-5.787 1-9h6z"/><path style="opacity:1" fill="#0b0b0b" d="M88.5 671.5a40.84 40.84 0 0 1 14 1.5c2.117 1.731 3.617 3.898 4.5 6.5a64.218 64.218 0 0 1 0 16c-3.939 7.542-10.105 10.042-18.5 7.5-3.228-1.563-5.395-4.063-6.5-7.5a64.247 64.247 0 0 1 0-16c1.305-3.461 3.471-6.128 6.5-8z"/><path style="opacity:1" fill="#040404" d="M116.5 671.5h6a8.43 8.43 0 0 0 .5 4c.833-1.5 2-2.667 3.5-3.5 3-.667 6-.667 9 0a4.457 4.457 0 0 1 2 1.5 21.614 21.614 0 0 1-4 5c-3.205-2.6-6.372-2.6-9.5 0a111.224 111.224 0 0 0-1.5 25h-6v-32z"/><path style="opacity:1" fill="#0b0b0b" d="M203.5 671.5a40.842 40.842 0 0 1 14 1.5c2.117 1.731 3.617 3.898 4.5 6.5a64.218 64.218 0 0 1 0 16c-3.939 7.542-10.105 10.042-18.5 7.5-3.228-1.563-5.395-4.063-6.5-7.5a64.218 64.218 0 0 1 0-16c1.305-3.461 3.471-6.128 6.5-8z"/><path style="opacity:1" fill="#030303" d="M231.5 671.5h6a8.43 8.43 0 0 0 .5 4c.833-1.5 2-2.667 3.5-3.5 6.39-1.942 11.223-.109 14.5 5.5.5 8.66.666 17.327.5 26h-6c.166-7.674 0-15.341-.5-23-4.098-5.304-8.098-5.304-12 0-.5 7.659-.666 15.326-.5 23h-6v-32z"/><path style="opacity:1" fill="#090909" d="M310.5 682.5v7c-6.522-.323-12.855.01-19 1 .044 3.59 1.711 6.09 5 7.5 3.833-.064 7.5-.73 11-2 2.826 2.522 2.493 4.522-1 6-6.196 2.436-12.029 1.936-17.5-1.5-4.667-8.667-4.667-17.333 0-26 6.661-4.298 12.994-3.964 19 1 1.903 1.941 2.736 4.274 2.5 7z"/><path style="opacity:1" fill="#070707" d="M320.5 671.5h6a8.43 8.43 0 0 0 .5 4c1.764-3.089 4.43-4.422 8-4 4.227-.304 7.393 1.363 9.5 5 4.338-5.177 9.671-6.344 16-3.5a60.631 60.631 0 0 1 3.5 6.5c.5 7.993.666 15.993.5 24h-6c.166-7.341 0-14.674-.5-22-3.203-5.636-7.203-6.302-12-2-.5 7.993-.666 15.993-.5 24h-6c.166-7.674 0-15.341-.5-23-4.098-5.304-8.098-5.304-12 0-.5 7.659-.666 15.326-.5 23h-6v-32z"/><path style="opacity:1" fill="#050505" d="M373.5 671.5h6a8.43 8.43 0 0 0 .5 4c.833-1.5 2-2.667 3.5-3.5 10.977-1.625 15.977 3.208 15 14.5.679 5.576-.654 10.576-4 15-3.462 1.891-7.128 2.391-11 1.5-1.833-.5-3-1.667-3.5-3.5a145.053 145.053 0 0 0-.5 17h-6v-45z"/><path style="opacity:1" fill="#0a0a0a" d="M413.5 671.5a40.842 40.842 0 0 1 14 1.5c2.117 1.731 3.617 3.898 4.5 6.5a64.218 64.218 0 0 1 0 16c-3.939 7.542-10.105 10.042-18.5 7.5-2.5-1.167-4.333-3-5.5-5.5a47.96 47.96 0 0 1-1-18c1.305-3.461 3.471-6.128 6.5-8z"/><path style="opacity:1" fill="#040404" d="M441.5 671.5h6a8.43 8.43 0 0 0 .5 4c.833-1.5 2-2.667 3.5-3.5 3-.667 6-.667 9 0a4.457 4.457 0 0 1 2 1.5 21.614 21.614 0 0 1-4 5c-3.205-2.6-6.372-2.6-9.5 0a111.224 111.224 0 0 0-1.5 25h-6v-32z"/><path style="opacity:1" fill="#0a0a0a" d="M472.5 671.5a60.931 60.931 0 0 1 11 .5c2.348.346 4.181 1.513 5.5 3.5a138.385 138.385 0 0 1 1.5 28c-2.321.271-4.321-.396-6-2-4.407 2.036-9.074 2.536-14 1.5-6.198-5.369-6.532-11.036-1-17 5.208-1.397 10.541-1.897 16-1.5-.214-7.365-3.88-9.865-11-7.5-2.616 1.709-4.616 1.043-6-2 1.186-1.412 2.519-2.579 4-3.5z"/><path style="opacity:1" fill="#040404" d="M500.5 671.5h6a8.43 8.43 0 0 0 .5 4c.833-1.5 2-2.667 3.5-3.5 3-.667 6-.667 9 0a4.457 4.457 0 0 1 2 1.5 21.614 21.614 0 0 1-4 5c-3.205-2.6-6.372-2.6-9.5 0a111.224 111.224 0 0 0-1.5 25h-6v-32z"/><path style="opacity:1" fill="#0b0b0b" d="M524.5 671.5c2.292-.256 4.459.077 6.5 1a351.942 351.942 0 0 0 7 20 71.308 71.308 0 0 0 7-20c2.139-1.269 4.305-1.269 6.5 0a2830.127 2830.127 0 0 0-13.5 40c-2.239 3.462-5.406 4.795-9.5 4v-6c1.644.214 3.144-.12 4.5-1a38.284 38.284 0 0 0 2.5-6.5 1772.346 1772.346 0 0 1-11-31.5z"/><path style="opacity:1" fill="#0a0a0a" d="M579.5 671.5a60.931 60.931 0 0 1 11 .5c2.348.346 4.181 1.513 5.5 3.5a138.385 138.385 0 0 1 1.5 28c-2.321.271-4.321-.396-6-2-4.407 2.036-9.074 2.536-14 1.5-6.198-5.369-6.532-11.036-1-17 5.208-1.397 10.541-1.897 16-1.5.361-5.639-2.306-8.306-8-8-2.093-.014-3.926.652-5.5 2-4.469-2.456-4.303-4.79.5-7z"/><path style="opacity:1" fill="#070707" d="M607.5 671.5h6a8.43 8.43 0 0 0 .5 4c.833-1.5 2-2.667 3.5-3.5 3-.667 6-.667 9 0a4.457 4.457 0 0 1 2 1.5 21.614 21.614 0 0 1-4 5c-3.199-1.299-6.365-1.299-9.5 0a111.224 111.224 0 0 0-1.5 25h-6v-32z"/><path style="opacity:1" fill="#ececec" d="M92.5 676.5c3.993-.255 6.826 1.411 8.5 5 .667 4 .667 8 0 12a6.975 6.975 0 0 1-2.5 3.5 16.242 16.242 0 0 1-8 0 6.977 6.977 0 0 1-2.5-3.5c-.667-4-.667-8 0-12 1.025-2.187 2.525-3.854 4.5-5z"/><path style="opacity:1" fill="#ebebeb" d="M207.5 676.5c3.993-.255 6.826 1.411 8.5 5 .667 4 .667 8 0 12a6.978 6.978 0 0 1-2.5 3.5 16.242 16.242 0 0 1-8 0 6.978 6.978 0 0 1-2.5-3.5c-.667-4-.667-8 0-12 1.025-2.187 2.525-3.854 4.5-5z"/><path style="opacity:1" fill="#dcdcdc" d="M295.5 676.5c6.469-.532 9.803 2.468 10 9h-14a12.93 12.93 0 0 1 .5-5 19.552 19.552 0 0 0 3.5-4z"/><path style="opacity:1" fill="#ebebeb" d="M382.5 676.5c4.094-.795 7.261.538 9.5 4a49.226 49.226 0 0 1 0 14c-3.694 4.842-7.694 5.175-12 1a64.218 64.218 0 0 1 0-16 10.515 10.515 0 0 0 2.5-3zM417.5 676.5c3.993-.255 6.826 1.411 8.5 5 .667 4 .667 8 0 12a6.978 6.978 0 0 1-2.5 3.5 16.242 16.242 0 0 1-8 0 6.978 6.978 0 0 1-2.5-3.5c-.667-4-.667-8 0-12 1.025-2.187 2.525-3.854 4.5-5z"/><path style="opacity:1" fill="#aaa" d="M264.5 671.5v5h3v21c-.991-6.479-1.324-13.146-1-20h-3c-.295-2.235.039-4.235 1-6zM632.5 671.5v5h3v21c-.991-6.479-1.324-13.146-1-20h-3c-.295-2.235.039-4.235 1-6z"/><path style="opacity:1" fill="#7e7e7e" d="M310.5 682.5c.973 2.448 1.306 5.115 1 8h-20c6.145-.99 12.478-1.323 19-1v-7z"/><path style="opacity:1" fill="#ececec" d="M473.5 689.5h12c1.667 6.319-.666 9.319-7 9-7.07-.032-8.736-3.032-5-9z"/><path style="opacity:1" fill="#ededed" d="M580.5 689.5h12c1.667 6.319-.666 9.319-7 9-7.07-.032-8.736-3.032-5-9z"/><path style="opacity:1" fill="#ad1d48" d="M194.5 783.5c-.167 47.001 0 94.001.5 141 1.417.578 2.25 1.578 2.5 3-1.208-.734-2.541-1.067-4-1-.332-47.836.001-95.503 1-143z"/><path style="opacity:1" fill="#ffe1f4" d="M224.5 783.5c.672 39.236 1.339 78.569 2 118-1.994-38.986-2.661-78.319-2-118z"/><path style="opacity:1" fill="#b9435d" d="M530.5 1023.5c5.52.6 10.853 1.77 16 3.5 3.402.83 6.402 2.33 9 4.5a230.961 230.961 0 0 1-25-8z"/></svg>